<svg xmlns="http://www.w3.org/2000/svg" viewBox="0 0 216 458"><path fill="currentColor" fill-rule="evenodd" d="M82.4 6.6Q86.8 7 86.8 7.1Q86.8 7.2 87.2 7.2Q87.8 7.2 88.2 7.5Q88.8 7.8 89.6 7.8Q90.5 7.8 90.5 7.9Q90.5 8 91.1 8Q91.8 8 92.5 8.4Q93.2 8.8 94.4 8.9Q95.5 9 95.8 9.2Q96 9.5 96.4 9.5Q96.8 9.5 96.8 9.6Q96.8 9.8 99 10.4Q101.2 11 101.8 11.4Q102.2 11.8 102.6 11.8Q103 11.8 105.5 13Q108 14.2 108.1 14.5Q108.2 14.8 108.9 14.9Q109.5 15 109.6 15.2Q109.8 15.5 110.5 15.8Q111.2 16 111.5 16.4Q111.8 16.8 112.2 16.9Q112.8 17 113 17.4Q113.2 17.8 114.2 18.2Q115.2 18.8 115.8 19.4Q116.2 20 116.5 20Q116.8 20 117.1 20.5Q117.5 21 117.8 21Q118 21 118.9 22Q119.8 23 120 23Q120.2 23 120.4 23.4Q120.5 23.8 120.8 23.8Q121 23.8 122.6 25.4Q124.2 27 124.2 27.2Q124.2 27.5 125.2 28.4Q126.2 29.2 126.2 29.5Q126.2 29.8 127.1 30.6Q128 31.5 128.1 32Q128.2 32.5 128.6 32.8Q129 33 129.1 33.5Q129.2 34 129.5 34.1Q129.8 34.2 129.8 34.5Q129.8 34.8 130 34.9Q130.2 35 130.2 35.2Q130.2 35.5 131 36.4Q131.8 37.2 132 38Q132.2 38.8 132.5 38.9Q132.8 39 134 41.5Q135.2 44 135.2 44.4Q135.2 44.8 136.1 46.5Q137 48.2 137 48.6Q137 49 137.1 49Q137.2 49 137.2 49.4Q137.2 49.8 137.4 49.8Q137.5 49.8 137.5 50.1Q137.5 50.5 137.9 51.2Q138.2 52 138.2 52.5Q138.2 53 138.6 53.8Q139 54.5 139.4 57.1Q139.8 59.8 139.9 59.8Q140 59.8 140.1 62.1Q140.2 64.5 140.4 64.5Q140.5 64.5 140.6 66.1Q140.8 67.8 140.9 67.8Q141 67.8 141 70.4Q141 73 140.9 73Q140.8 73 140.8 74Q140.8 75 140.6 75Q140.5 75 140.5 75.6Q140.5 76.2 140.4 76.2Q140.2 76.2 140.1 78.1Q140 80 139.9 80Q139.8 80 139.6 80.9Q139.5 81.8 139.4 81.8Q139.2 81.8 139.2 82.5Q139.2 83.2 139.1 83.2Q139 83.2 139 83.9Q139 84.5 138.9 84.5Q138.8 84.5 138.8 85Q138.8 85.5 138.5 85.9Q138.2 86.2 138.1 87.4Q138 88.5 137.6 89.1Q137.2 89.8 136.8 91.4Q136.2 93 136 93.1Q135.8 93.2 135.8 93.5Q135.8 93.8 135.2 93.8Q134.8 93.8 134.4 94.4Q134 95 133.6 97.6Q133.2 100.2 133.1 100.2Q133 100.2 132.9 101.9Q132.8 103.5 132.6 103.5Q132.5 103.5 132.4 104.9Q132.2 106.2 132.1 106.2Q132 106.2 132 107Q132 107.8 131.9 107.8Q131.8 107.8 131.6 109Q131.5 110.2 131.4 110.2Q131.2 110.2 131.1 114.5Q131 118.8 131.1 118.8Q131.2 118.8 131.2 120.1Q131.2 121.5 131.4 121.5Q131.5 121.5 131.6 123.2Q131.8 125 131.9 125Q132 125 132.1 129.8Q132.2 134.5 132.1 134.5Q132 134.5 132 135.5Q132 136.5 131.9 136.5Q131.8 136.5 131.5 137.8Q131.2 139 130.8 140Q130.2 141 129.6 143.2Q129 145.5 128 147.5Q127 149.5 126.6 149.8Q126.2 150 126.1 150.5Q126 151 125.6 151.2Q125.2 151.5 125 152.2Q124.8 153 124 153.9Q123.2 154.8 123 155.5Q122.8 156.2 122.5 156.4Q122.2 156.5 121.6 157.8Q121 159 120.5 159.4Q120 159.8 120 160Q120 160.2 119 161.2Q118 162.2 118 162.5Q118 162.8 117.6 162.9Q117.2 163 117.1 163.4Q117 163.8 115.6 165Q114.2 166.2 114.2 166.5Q114.2 166.8 112.5 168.5Q110.8 170.2 110.5 170.2Q110.2 170.2 109.5 171.1Q108.8 172 108.5 172Q108.2 172 107.9 172.5Q107.5 173 107.2 173Q107 173 106.6 173.5Q106.2 174 106 174Q105.8 174 105.1 174.6Q104.5 175.2 103.8 175.6Q103 176 101.9 176.2Q100.8 176.5 100.8 176.6Q100.8 176.8 98.6 176.9Q96.5 177 96.5 176.9Q96.5 176.8 95.2 176.8Q94 176.8 94 176.6Q94 176.5 92.5 176.4Q91 176.2 90.6 176Q90.2 175.8 89.5 175.8Q88.8 175.8 88.5 176Q88.2 176.2 88 178.5Q87.8 180.8 90 183Q92.2 185.2 92.8 186.4Q93.2 187.5 93.5 187.6Q93.8 187.8 93.8 188Q93.8 188.2 94.5 189.1Q95.2 190 95.4 190.5Q95.5 191 95.8 191.1Q96 191.2 96.1 191.8Q96.2 192.2 96.5 192.4Q96.8 192.5 97.2 193.5Q97.8 194.5 97.9 195.2Q98 196 98.1 196Q98.2 196 98.2 196.6Q98.2 197.2 98.6 198Q99 198.8 99.1 199.9Q99.2 201 99.6 201.8Q100 202.5 100.1 203.6Q100.2 204.8 100.4 204.8Q100.5 204.8 100.8 206.2Q101 207.8 101.1 207.8Q101.2 207.8 101.2 208.4Q101.2 209 101.4 209Q101.5 209 101.5 209.5Q101.5 210 101.8 210.4Q102 210.8 102 211.5Q102 212.2 102.1 212.2Q102.2 212.2 102.2 213Q102.2 213.8 102.6 214.5Q103 215.2 103.1 216.8Q103.2 218.2 103.4 218.2Q103.5 218.2 103.8 219.6Q104 221 104.1 221Q104.2 221 104.2 222Q104.2 223 104.4 223Q104.5 223 104.6 224.1Q104.8 225.2 104.9 225.2Q105 225.2 105.1 227Q105.2 228.8 105.5 229.2Q105.8 229.8 106 232Q106.2 234.2 106.4 234.2Q106.5 234.2 106.5 234.8Q106.5 235.2 106.8 235.8Q107 236.2 107.1 237.9Q107.2 239.5 107.4 239.5Q107.5 239.5 107.6 240.6Q107.8 241.8 107.9 241.8Q108 241.8 108.1 243.4Q108.2 245 108.5 245.5Q108.8 246 109.5 251.1Q110.2 256.2 110.4 256.2Q110.5 256.2 110.5 256.9Q110.5 257.5 110.6 257.5Q110.8 257.5 110.8 258.1Q110.8 258.8 110.9 258.8Q111 258.8 111 259.6Q111 260.5 111.1 260.5Q111.2 260.5 111.2 261.4Q111.2 262.2 111.4 262.2Q111.5 262.2 111.6 263.6Q111.8 265 111.9 265Q112 265 112 266.2Q112 267.5 112.1 267.5Q112.2 267.5 112.4 268.6Q112.5 269.8 114.2 271.1Q116 272.5 116 272.8Q116 273 116.4 273.2Q116.8 273.5 117.1 274.4Q117.5 275.2 118.2 275.9Q119 276.5 119 276.8Q119 277 119.6 277.5Q120.2 278 120.2 278.2Q120.2 278.5 120.8 279Q121.2 279.5 123.2 279.6Q125.2 279.8 126.1 280.2Q127 280.8 127.4 280.8Q127.8 280.8 128.2 281Q128.8 281.2 128.9 281.5Q129 281.8 129.5 281.9Q130 282 130.1 282.2Q130.2 282.5 130.5 282.5Q130.8 282.5 130.9 282.8Q131 283 131.5 283.1Q132 283.2 132.1 283.5Q132.2 283.8 132.6 283.8Q133 283.8 133.5 284Q134 284.2 134.1 284.5Q134.2 284.8 134.6 284.8Q135 284.8 135.5 285Q136 285.2 136.1 285.5Q136.2 285.8 138.5 286.9Q140.8 288 141.1 288Q141.5 288 141.9 288.4Q142.2 288.8 142.6 288.8Q143 288.8 145.1 289.9Q147.2 291 147.6 291Q148 291 148.4 291.4Q148.8 291.8 149.1 291.8Q149.5 291.8 150.5 292.4Q151.5 293 151.9 293Q152.2 293 152.4 293.2Q152.5 293.5 157.5 295.9Q162.5 298.2 162.9 298.6Q163.2 299 163.6 299Q164 299 164.8 299.5Q165.5 300 165.9 300Q166.2 300 166.4 300.2Q166.5 300.5 167.2 300.9Q168 301.2 168.1 301.9Q168.2 302.5 168.8 303Q169.2 303.5 170.5 303.8Q171.8 304 172.2 304.4Q172.8 304.8 173.6 304.9Q174.5 305 175.1 305.4Q175.8 305.8 176.6 305.9Q177.5 306 177.6 306.2Q177.8 306.5 178.4 306.6Q179 306.8 180.5 307.5Q182 308.2 182.9 309Q183.8 309.8 184.2 309.9Q184.8 310 185 310.4Q185.2 310.8 185.6 310.8Q186 310.8 186.5 311Q187 311.2 187.1 311.5Q187.2 311.8 187.8 311.9Q188.2 312 189 312.6Q189.8 313.2 189.8 313.5Q189.8 313.8 190.9 314.9Q192 316 192.2 316Q192.5 316 195.8 319.2Q199 322.5 199 322.8Q199 323 199.5 323.4Q200 323.8 200.1 324.2Q200.2 324.8 200.6 325Q201 325.2 201.5 326.2Q202 327.2 202 327.8Q202 328.2 202.1 328.2Q202.2 328.2 202.1 330.4Q202 332.5 202.4 333.2Q202.8 334 203 335.6Q203.2 337.2 203.4 337.2Q203.5 337.2 203.5 337.8Q203.5 338.2 203.6 338.2Q203.8 338.2 203.8 338.8Q203.8 339.2 204 339.8Q204.2 340.2 204.2 341Q204.2 341.8 204.4 341.8Q204.5 341.8 205 345.1Q205.5 348.5 205.6 348.5Q205.8 348.5 205.8 349.1Q205.8 349.8 205.9 349.8Q206 349.8 206 350.5Q206 351.2 206.1 351.2Q206.2 351.2 206.4 353.4Q206.5 355.5 206.6 355.5Q206.8 355.5 206.8 358.5Q206.8 361.5 206.6 361.5Q206.5 361.5 206.5 362.4Q206.5 363.2 206.4 363.2Q206.2 363.2 206.2 364Q206.2 364.8 206.1 364.8Q206 364.8 205.8 366.2Q205.5 367.8 205.6 367.8Q205.8 367.8 205.8 368.4Q205.8 369 205.9 369Q206 369 206 369.4Q206 369.8 206.1 369.8Q206.2 369.8 206.2 370.1Q206.2 370.5 206.6 371.1Q207 371.8 207.1 372.6Q207.2 373.5 207.6 374.2Q208 375 208.5 377.9Q209 380.8 209.1 380.8Q209.2 380.8 209.2 381.6Q209.2 382.5 209.4 382.5Q209.5 382.5 209.6 386.4Q209.8 390.2 209.6 390.2Q209.5 390.2 209.4 393.9Q209.2 397.5 209.1 397.5Q209 397.5 208.9 399.1Q208.8 400.8 208.6 400.8Q208.5 400.8 208.4 402Q208.2 403.2 208.1 403.2Q208 403.2 208 403.8Q208 404.2 207.9 404.2Q207.8 404.2 207.6 405.1Q207.5 406 207.4 406Q207.2 406 207.2 406.6Q207.2 407.2 206.8 408.2Q206.2 409.2 206.1 410Q206 410.8 205.8 411Q205.5 411.2 205.5 411.6Q205.5 412 204.9 413Q204.2 414 204 414.9Q203.8 415.8 203.5 415.9Q203.2 416 203 416.9Q202.8 417.8 202.5 417.9Q202.2 418 202.1 418.5Q202 419 201.5 419.4Q201 419.8 201 420Q201 420.2 200.6 420.5Q200.2 420.8 200.1 421.2Q200 421.8 198 423.8Q196 425.8 196 426Q196 426.2 195.1 427.1Q194.2 428 194 428Q193.8 428 193.4 428.5Q193 429 192.8 429Q192.5 429 191.6 429.9Q190.8 430.8 190.5 430.8Q190.2 430.8 190.1 431Q190 431.2 189.8 431.2Q189.5 431.2 188.6 432Q187.8 432.8 187.2 432.9Q186.8 433 186.6 433.2Q186.5 433.5 185.9 433.8Q185.2 434 185 434.4Q184.8 434.8 183.9 435.1Q183 435.5 183.1 436Q183.2 436.5 185.5 436.5Q187.8 436.5 187.8 436.6Q187.8 436.8 191.4 437Q195 437.2 195 437.4Q195 437.5 195.9 437.5Q196.8 437.5 196.8 437.6Q196.8 437.8 197.4 437.8Q198 437.8 198.5 438Q199 438.2 199.8 438.2Q200.5 438.2 200.5 438.5Q200.5 438.8 199.6 438.8Q198.8 438.8 198.8 438.9Q198.8 439 198 439Q197.2 439 197.2 439.1Q197.2 439.2 194.2 439.2Q191.2 439.2 191.2 439.4Q191.2 439.5 188.8 439.6Q186.2 439.8 186.2 439.9Q186.2 440 185 440.1Q183.8 440.2 183.6 440.9Q183.5 441.5 183.2 441.6Q183 441.8 179.9 442Q176.8 442.2 176.8 442.4Q176.8 442.5 171.1 442.8Q165.5 443 165.5 443.1Q165.5 443.2 164.6 443.2Q163.8 443.2 163.8 443.4Q163.8 443.5 162.4 443.6Q161 443.8 161 443.9Q161 444 151.6 444.1Q142.2 444.2 141.9 444.5Q141.5 444.8 139.9 445Q138.2 445.2 137.6 445.6Q137 446 136.5 446Q136 446 135.2 446.4Q134.5 446.8 133.1 447Q131.8 447.2 131.5 447.5Q131.2 447.8 130.2 447.9Q129.2 448 128.6 448.4Q128 448.8 126.5 449Q125 449.2 124.2 449.6Q123.5 450 122.9 450Q122.2 450 122.2 450.1Q122.2 450.2 121.8 450.2Q121.2 450.2 121.2 450.4Q121.2 450.5 120.8 450.5Q120.2 450.5 119.8 450.8Q119.2 451 117.6 451.1Q116 451.2 116 451.4Q116 451.5 114.8 451.6Q113.5 451.8 113.5 451.9Q113.5 452 111.2 452Q109 452 109 451.9Q109 451.8 108.2 451.8Q107.5 451.8 107.5 451.6Q107.5 451.5 105.5 451.1Q103.5 450.8 103 450.5Q102.5 450.2 102.4 450Q102.2 449.8 102 449.8Q101.8 449.8 101.6 449.5Q101.5 449.2 101.2 449.2Q101 449.2 100.8 448.9Q100.5 448.5 100.2 448.5Q100 448.5 99.8 448.1Q99.5 447.8 98.8 447.4Q98 447 97.2 446.1Q96.5 445.2 96.2 445.2Q96 445.2 95.9 445Q95.8 444.8 95.2 444.5Q94.8 444.2 90.5 444.2Q86.2 444.2 86.2 444.1Q86.2 444 84.9 444Q83.5 444 83.5 443.9Q83.5 443.8 81.8 443.8Q80 443.8 80 443.6Q80 443.5 79.4 443.5Q78.8 443.5 78.8 443.4Q78.8 443.2 72.9 443.2Q67 443.2 67 443.1Q67 443 65.8 442.9Q64.5 442.8 64.6 442.5Q64.8 442.2 66 442.2Q67.2 442.2 67.2 442.1Q67.2 442 73.5 441.9Q79.8 441.8 79.8 441.6Q79.8 441.5 80.6 441.5Q81.5 441.5 81.9 441Q82.2 440.5 81.1 440.5Q80 440.5 80 440.4Q80 440.2 78.4 440.2Q76.8 440.2 76.8 440.4Q76.8 440.5 75.1 440.5Q73.5 440.5 73.5 440.6Q73.5 440.8 66.9 440.6Q60.2 440.5 60.2 440.6Q60.2 440.8 59.8 440.8Q59.2 440.8 58.8 441Q58.2 441.2 58.1 441.6Q58 442 57.8 442.1Q57.5 442.2 56.1 442.5Q54.8 442.8 54.8 442.9Q54.8 443 54.1 443Q53.5 443 53 443.2Q52.5 443.5 50.6 443.6Q48.8 443.8 48.8 443.9Q48.8 444 46.1 443.9Q43.5 443.8 43.5 443.9Q43.5 444 42.9 444Q42.2 444 42.2 444.1Q42.2 444.2 41.8 444.2Q41.2 444.2 40.9 444.5Q40.5 444.8 39.6 444.8Q38.8 444.8 38.8 444.9Q38.8 445 37.9 444.9Q37 444.8 36.2 444.4Q35.5 444 34.4 444Q33.2 444 33.2 444.1Q33.2 444.2 32.5 444.2Q31.8 444.2 31.8 444.4Q31.8 444.5 30 444.4Q28.2 444.2 27.8 444Q27.2 443.8 26.1 442.6Q25 441.5 25.1 439.2Q25.2 437 26.5 437.2Q27.8 437.5 27.9 437.2Q28 437 28.4 436.9Q28.8 436.8 28.8 436.5Q28.8 436.2 28.5 436.1Q28.2 436 28 435.5Q27.8 435 27.2 434.8Q26.8 434.5 25.5 434.5Q24.2 434.5 24 433.8Q23.8 433 23.5 432.9Q23.2 432.8 23.2 432.5Q23.2 432.2 23 432.1Q22.8 432 22.5 431.5Q22.2 431 22.2 430.5Q22.2 430 22.6 429.5Q23 429 23.1 428.2Q23.2 427.5 23.6 427.2Q24 427 24.1 426.4Q24.2 425.8 24.8 425.5Q25.2 425.2 25.4 424.8Q25.5 424.2 25.8 424.2Q26 424.2 26 424.5Q26 424.8 25.9 424.8Q25.8 424.8 25.6 425.9Q25.5 427 25.2 427.2Q25 427.5 25 428.6Q25 429.8 25.1 429.8Q25.2 429.8 25.2 430.1Q25.2 430.5 25.8 431.5Q26.2 432.5 26.6 432.9Q27 433.2 28.6 433.1Q30.2 433 30.4 433.1Q30.5 433.2 30.4 434.4Q30.2 435.5 31.5 436Q32.8 436.5 32.8 437.2Q32.8 438 31.8 438Q30.8 438 30 438.4Q29.2 438.8 29.1 439.1Q29 439.5 29.2 439.8Q29.5 440 30.8 440.1Q32 440.2 32.8 439.5Q33.5 438.8 34.6 438.6Q35.8 438.5 36 438.8Q36.2 439 36.4 439.8Q36.5 440.5 37.1 440.9Q37.8 441.2 39.2 441.2Q40.8 441.2 42 440.6Q43.2 440 47.5 440.1Q51.8 440.2 51.8 440.1Q51.8 440 53 439.8Q54.2 439.5 55.6 438.6Q57 437.8 57.2 436.9Q57.5 436 57.6 436Q57.8 436 57.8 434.9Q57.8 433.8 57.1 433.1Q56.5 432.5 55.2 432.9Q54 433.2 53.2 433.8Q52.5 434.2 51.1 434.2Q49.8 434.2 49.4 434Q49 433.8 49.1 433.5Q49.2 433.2 49.8 433.1Q50.2 433 50.4 432.8Q50.5 432.5 52.2 431.6Q54 430.8 54.4 430.8Q54.8 430.8 55.1 430.4Q55.5 430 55.9 430Q56.2 430 57.5 429.4Q58.8 428.8 58.9 428.5Q59 428.2 59.8 428Q60.5 427.8 60.6 427.5Q60.8 427.2 61.5 427Q62.2 426.8 62.5 426.4Q62.8 426 63.2 425.9Q63.8 425.8 63.9 425.5Q64 425.2 64.8 425Q65.5 424.8 65.6 424.5Q65.8 424.2 66.2 424.1Q66.8 424 67.2 423.5Q67.8 423 68.2 422.9Q68.8 422.8 68.9 422.5Q69 422.2 69.2 422.2Q69.5 422.2 69.6 422Q69.8 421.8 70.8 421.2Q71.8 420.8 72 420.4Q72.2 420 73.9 419.4Q75.5 418.8 75.6 417.9Q75.8 417 75.5 416.9Q75.2 416.8 74.5 415.2Q73.8 413.8 73.8 413.4Q73.8 413 73.4 412.5Q73 412 72.9 411.2Q72.8 410.5 72.4 410Q72 409.5 71.9 408.8Q71.8 408 71.4 407.5Q71 407 70.9 406.2Q70.8 405.5 70.4 405Q70 404.5 70 404Q70 403.5 69.9 403.5Q69.8 403.5 69.8 403.1Q69.8 402.8 69.6 402.8Q69.5 402.8 69.5 402.4Q69.5 402 69.1 401.2Q68.8 400.5 68.4 398.4Q68 396.2 67.8 395.8Q67.5 395.2 67.5 394.6Q67.5 394 67.4 394Q67.2 394 67 391Q66.8 388 66.5 387.5Q66.2 387 66.1 385.9Q66 384.8 65.5 383.9Q65 383 64.9 381.6Q64.8 380.2 64.2 379.8Q63.8 379.2 62 379.1Q60.2 379 59.8 379.5Q59.2 380 59 380Q58.8 380 58.1 380.6Q57.5 381.2 57.2 381.9Q57 382.5 56.6 382.8Q56.2 383 55 385.5Q53.8 388 53.5 388.1Q53.2 388.2 52.9 389.2Q52.5 390.2 52.2 390.4Q52 390.5 51.8 391.2Q51.5 392 51.2 392.1Q51 392.2 51 392.6Q51 393 50.8 393.1Q50.5 393.2 50.1 394.2Q49.8 395.2 49.5 395.4Q49.2 395.5 49.1 396Q49 396.5 48.6 396.8Q48.2 397 47.8 398Q47.2 399 46.1 400.1Q45 401.2 45 401.5Q45 401.8 44.5 402.1Q44 402.5 44 402.8Q44 403 43.2 403.6Q42.5 404.2 42.5 404.5Q42.5 404.8 41.4 405.8Q40.2 406.8 40.2 407Q40.2 407.2 38.6 408.8Q37 410.2 37 410.5Q37 410.8 35.1 412.6Q33.2 414.5 33.2 414.8Q33.2 415 32.4 415.9Q31.5 416.8 31.5 417Q31.5 417.2 30.9 417.9Q30.2 418.5 30.2 418.8Q30.2 419 30 419.1Q29.8 419.2 29.2 420.2Q28.8 421.2 28.2 421.6Q27.8 422 27.8 422.2Q27.8 422.5 27 423.2Q26.2 424 26.2 423.1Q26.2 422.2 26.6 421.8Q27 421.2 27 420.8Q27 420.2 27.5 419.5Q28 418.8 28.1 418Q28.2 417.2 28.5 417.1Q28.8 417 29 416.1Q29.2 415.2 29.5 415.1Q29.8 415 30 414.2Q30.2 413.5 30.5 413.4Q30.8 413.2 31 412.2Q31.2 411.2 31.5 411.1Q31.8 411 32.4 409.8Q33 408.5 33.1 407.8Q33.2 407 34.1 405.5Q35 404 35.1 402.2Q35.2 400.5 34.2 398.5Q33.2 396.5 33 395.4Q32.8 394.2 32.5 394Q32.2 393.8 32.2 393.4Q32.2 393 32.1 393Q32 393 32 392.6Q32 392.2 31.6 391.6Q31.2 391 31.1 390.1Q31 389.2 30.6 388.5Q30.2 387.8 30.1 386.5Q30 385.2 29.9 385.2Q29.8 385.2 29.8 383.8Q29.8 382.2 29.6 382.2Q29.5 382.2 29.5 381.6Q29.5 381 29.2 380.5Q29 380 29 378Q29 376 28.6 375.4Q28.2 374.8 28 373.1Q27.8 371.5 27.5 371.2Q27.2 371 27 369.5Q26.8 368 26.5 367.6Q26.2 367.2 26.1 365.5Q26 363.8 25.9 363.8Q25.8 363.8 25.8 362.2Q25.8 360.8 25.6 360.8Q25.5 360.8 25.6 358.4Q25.8 356 25.6 356Q25.5 356 25.4 352.6Q25.2 349.2 25.4 349.2Q25.5 349.2 25.5 346.8Q25.5 344.2 25.6 344.2Q25.8 344.2 25.8 342.1Q25.8 340 25.9 340Q26 340 26 336Q26 332 26.1 332Q26.2 332 26.1 326Q26 320 25.9 320Q25.8 320 25.8 319Q25.8 318 25.6 318Q25.5 318 25.5 317Q25.5 316 25.4 316Q25.2 316 25.1 313.8Q25 311.5 24.9 311.5Q24.8 311.5 24.8 310.8Q24.8 310 24.6 310Q24.5 310 24.5 309.4Q24.5 308.8 24.4 308.8Q24.2 308.8 23.6 304.2Q23 299.8 22.9 299.8Q22.8 299.8 22.8 299.1Q22.8 298.5 22.6 298.5Q22.5 298.5 22.1 296.5Q21.8 294.5 21.4 293.8Q21 293 21 292.4Q21 291.8 20.8 291.4Q20.5 291 20.1 289Q19.8 287 19.6 287Q19.5 287 19.2 285.6Q19 284.2 18.9 284.2Q18.8 284.2 18.8 283.1Q18.8 282 18.6 282Q18.5 282 18.4 280.5Q18.2 279 18.1 279Q18 279 18 275.5Q18 272 18.1 272Q18.2 272 18.4 267.6Q18.5 263.2 18.6 263.2Q18.8 263.2 18.8 253Q18.8 242.8 18.6 242.8Q18.5 242.8 18.5 242.4Q18.5 242 18.6 242Q18.8 242 18.9 236.9Q19 231.8 19.1 231.8Q19.2 231.8 19.2 230.5Q19.2 229.2 19.4 229.2Q19.5 229.2 19.9 224.1Q20.2 219 20.4 219Q20.5 219 20.5 218.2Q20.5 217.5 20.6 217.5Q20.8 217.5 21 215.1Q21.2 212.8 21.5 212.2Q21.8 211.8 21.8 210.9Q21.8 210 21.9 210Q22 210 22 209.4Q22 208.8 22.1 208.8Q22.2 208.8 22.2 208.2Q22.2 207.8 22.5 207.2Q22.8 206.8 22.9 205.6Q23 204.5 23.1 204.5Q23.2 204.5 23.6 202.8Q24 201 24.4 200.4Q24.8 199.8 24.8 199.2Q24.8 198.8 24.9 198.8Q25 198.8 25 198.4Q25 198 25.1 198Q25.2 198 25.2 197.6Q25.2 197.2 25.6 196.5Q26 195.8 26 195.2Q26 194.8 26.2 194.5Q26.5 194.2 26.8 193.1Q27 192 27.4 191.5Q27.8 191 27.8 190.6Q27.8 190.2 28.9 188Q30 185.8 30.2 185.6Q30.5 185.5 31.2 184Q32 182.5 32.4 182.2Q32.8 182 33.4 180.8Q34 179.5 34.4 179.2Q34.8 179 35.4 177.6Q36 176.2 36.4 176Q36.8 175.8 36.8 175.5Q36.8 175.2 37.4 174.5Q38 173.8 38.2 173.8Q38.5 173.8 39.1 173.1Q39.8 172.5 41.1 171.9Q42.5 171.2 43 170.5Q43.5 169.8 43.8 168.4Q44 167 44.2 166.6Q44.5 166.2 44.5 165.5Q44.5 164.8 44.6 164.8Q44.8 164.8 44.8 160Q44.8 155.2 44.6 155.2Q44.5 155.2 44.4 152.8Q44.2 150.2 44.1 150.2Q44 150.2 43.8 148.6Q43.5 147 43.1 147Q42.8 147 42.8 146.9Q42.8 146.8 42.5 146.9Q42.2 147 42 148.1Q41.8 149.2 41.2 150Q40.8 150.8 40.5 151.6Q40.2 152.5 40 152.8Q39.8 153 39.1 152.9Q38.5 152.8 37.8 151.2Q37 149.8 36.9 149Q36.8 148.2 36.4 147.8Q36 147.2 35.5 145.6Q35 144 34.4 143Q33.8 142 33.8 141.6Q33.8 141.2 33.5 141.1Q33.2 141 32.8 139.8Q32.2 138.5 32 138.4Q31.8 138.2 31.6 137.8Q31.5 137.2 30.8 136.4Q30 135.5 29.9 135Q29.8 134.5 28.8 133.9Q27.8 133.2 27.1 133.1Q26.5 133 24.6 131.2Q22.8 129.5 22.8 129.2Q22.8 129 22.5 129Q22.2 129 22.2 128.8Q22.2 128.5 21.1 127.5Q20 126.5 20 126.2Q20 126 19.2 125.4Q18.5 124.8 18.1 124Q17.8 123.2 17.2 122.9Q16.8 122.5 16.8 122.2Q16.8 122 16.5 121.9Q16.2 121.8 16.2 121.5Q16.2 121.2 16 121.1Q15.8 121 15.8 120.8Q15.8 120.5 15.5 120.4Q15.2 120.2 15.1 119.8Q15 119.2 14.8 119.1Q14.5 119 14.1 118.2Q13.8 117.5 13.8 117.1Q13.8 116.8 13.5 116.5Q13.2 116.2 13.2 115.9Q13.2 115.5 13.1 115.5Q13 115.5 13 115.1Q13 114.8 12.9 114.8Q12.8 114.8 12.8 114.4Q12.8 114 12.4 113.2Q12 112.5 11.8 110.9Q11.5 109.2 11.4 109.2Q11.2 109.2 11.1 106.6Q11 104 10.4 102.9Q9.8 101.8 9.8 101.4Q9.8 101 9.5 100.8Q9.2 100.5 9.2 100.1Q9.2 99.8 9.1 99.8Q9 99.8 9 99.4Q9 99 8.9 99Q8.8 99 8.8 98.6Q8.8 98.2 8.4 97.5Q8 96.8 8 96.2Q8 95.8 7.9 95.8Q7.8 95.8 7.5 94.5Q7.2 93.2 7.1 93.2Q7 93.2 6.8 91.2Q6.5 89.2 6.4 89.2Q6.2 89.2 6.2 87.6Q6.2 86 6.1 86Q6 86 6 84.9Q6 83.8 5.9 83.8Q5.8 83.8 5.8 80.6Q5.8 77.5 5.9 77.5Q6 77.5 6.1 74.8Q6.2 72 6.4 72Q6.5 72 6.5 71.4Q6.5 70.8 6.6 70.8Q6.8 70.8 6.9 69Q7 67.2 7.1 67.2Q7.2 67.2 7.2 66.8Q7.2 66.2 7.5 65.9Q7.8 65.5 8.4 62.5Q9 59.5 9.4 58.9Q9.8 58.2 9.9 57.4Q10 56.5 10.4 56Q10.8 55.5 11 54.4Q11.2 53.2 12.1 51.8Q13 50.2 13 49.9Q13 49.5 14 47.5Q15 45.5 15.2 45.4Q15.5 45.2 15.8 44.5Q16 43.8 16.5 43.2Q17 42.8 17.6 41.4Q18.2 40 18.5 39.9Q18.8 39.8 18.8 39.5Q18.8 39.2 19 39.1Q19.2 39 19.8 38Q20.2 37 20.6 36.8Q21 36.5 21 36.2Q21 36 21.4 35.8Q21.8 35.5 21.8 35.2Q21.8 35 22.4 34.5Q23 34 23 33.8Q23 33.5 24.1 32.4Q25.2 31.2 25.2 31Q25.2 30.8 26 30.1Q26.8 29.5 26.8 29.2Q26.8 29 28 27.8Q29.2 26.5 29.5 26.5Q29.8 26.5 29.8 26.2Q29.8 26 30 26Q30.2 26 30.8 25.4Q31.2 24.8 31.5 24.8Q31.8 24.8 32.6 23.8Q33.5 22.8 33.8 22.8Q34 22.8 35.4 21.4Q36.8 20 38.1 19.4Q39.5 18.8 39.8 18.4Q40 18 40.5 17.9Q41 17.8 41.1 17.5Q41.2 17.2 42.8 16.5Q44.2 15.8 44.4 15.5Q44.5 15.2 45.5 14.9Q46.5 14.5 46.6 14.2Q46.8 14 47.4 13.9Q48 13.8 48.1 13.5Q48.2 13.2 48.9 13.1Q49.5 13 50.6 12.4Q51.8 11.8 52.1 11.8Q52.5 11.8 53 11.4Q53.5 11 54.6 10.8Q55.8 10.5 56.4 10.1Q57 9.8 57.9 9.6Q58.8 9.5 59 9.2Q59.2 9 60.8 8.8Q62.2 8.5 62.6 8.2Q63 8 65.5 7.6Q68 7.2 68 7.1Q68 7 73 6.8Q78 6.5 78 6.4Q78 6.2 82.4 6.6ZM71.8 10.8Q70 11 70 11.1Q70 11.2 69 11.2Q68 11.2 67.5 11.5Q67 11.8 65.2 12Q63.5 12.2 62.8 12.6Q62 13 61.4 13Q60.8 13 59.8 13.5Q58.8 14 56.9 14.5Q55 15 54.2 15.5Q53.5 16 53.1 16Q52.8 16 52 16.5Q51.2 17 50.9 17Q50.5 17 50.1 17.4Q49.8 17.8 49.4 17.8Q49 17.8 47.5 18.5Q46 19.2 45.9 19.5Q45.8 19.8 45 20Q44.2 20.2 44.1 20.5Q44 20.8 43.8 20.8Q43.5 20.8 43.4 21Q43.2 21.2 43 21.2Q42.8 21.2 42.6 21.5Q42.5 21.8 42 21.9Q41.5 22 41.2 22.4Q41 22.8 40.4 23Q39.8 23.2 39.5 23.6Q39.2 24 38.8 24.1Q38.2 24.2 37.5 25Q36.8 25.8 36.5 25.8Q36.2 25.8 32.2 29.8Q28.2 33.8 28.2 34Q28.2 34.2 27.6 34.8Q27 35.2 27 35.5Q27 35.8 26.6 36Q26.2 36.2 26 36.9Q25.8 37.5 25 38.2Q24.2 39 24.2 39.2Q24.2 39.5 23.6 40.1Q23 40.8 23 41Q23 41.2 22.8 41.4Q22.5 41.5 22.5 41.8Q22.5 42 21.8 42.9Q21 43.8 20.9 44.2Q20.8 44.8 20.5 44.9Q20.2 45 20 45.8Q19.8 46.5 19.5 46.6Q19.2 46.8 18.2 48.8Q17.2 50.8 16.6 52.8Q16 54.8 15.1 56.5Q14.2 58.2 14.1 59.1Q14 60 13.8 60.2Q13.5 60.5 13.2 61.8Q13 63 12.8 63.4Q12.5 63.8 12.1 65.9Q11.8 68 11.6 68Q11.5 68 11.2 70.5Q11 73 10.9 73Q10.8 73 10.8 74.9Q10.8 76.8 10.6 76.8Q10.5 76.8 10.5 80.9Q10.5 85 10.6 85Q10.8 85 11.2 88.8Q11.8 92.5 11.9 92.5Q12 92.5 12.1 93.6Q12.2 94.8 12.5 95.1Q12.8 95.5 13 95.6Q13.2 95.8 13.5 95.6Q13.8 95.5 13.9 94.9Q14 94.2 14.4 93.9Q14.8 93.5 14.9 93Q15 92.5 17.4 90.2Q19.8 88 20.8 87.8Q21.8 87.5 21.8 87.4Q21.8 87.2 23.2 87.2Q24.8 87.2 24.8 87.4Q24.8 87.5 25.1 87.5Q25.5 87.5 25.5 87.6Q25.5 87.8 25.9 87.8Q26.2 87.8 26.2 87.9Q26.2 88 26.6 88Q27 88 27.8 88.4Q28.5 88.8 29 89.4Q29.5 90 29.8 90Q30 90 30 90.2Q30 90.5 30.5 90.8Q31 91 31 91.2Q31 91.5 32 92.4Q33 93.2 33 93.5Q33 93.8 33.6 94.4Q34.2 95 34.8 96Q35.2 97 35.6 97.2Q36 97.5 36.1 98Q36.2 98.5 37 99.2Q37.8 100 38.1 99.2Q38.5 98.5 38.9 96.5Q39.2 94.5 39.4 94.5Q39.5 94.5 40.2 91.9Q41 89.2 41.2 89Q41.5 88.8 41.8 87.8Q42 86.8 42.4 86.4Q42.8 86 42.8 85.6Q42.8 85.2 43.6 83.5Q44.5 81.8 44.8 81.6Q45 81.5 45.1 81Q45.2 80.5 45.5 80.4Q45.8 80.2 45.9 79.8Q46 79.2 46.2 79.1Q46.5 79 46.6 78.5Q46.8 78 47 77.9Q47.2 77.8 47.8 76.8Q48.2 75.8 48.6 75.5Q49 75.2 49 75Q49 74.8 49.4 74.5Q49.8 74.2 49.8 74Q49.8 73.8 50.1 73.5Q50.5 73.2 50.5 73Q50.5 72.8 50.9 72.5Q51.2 72.2 51.6 71.5Q52 70.8 52.5 70.4Q53 70 53 69.8Q53 69.5 53.6 69Q54.2 68.5 54.2 68.2Q54.2 68 55.6 66.8Q57 65.5 57 65.2Q57 65 57.4 64.9Q57.8 64.8 57.8 64.5Q57.8 64.2 59.9 62.2Q62 60.2 62.1 59.9Q62.2 59.5 62.5 59.5Q62.8 59.5 62.9 59.2Q63 59 63.4 59Q63.8 59 64 59.2Q64.2 59.5 64.5 62Q64.8 64.5 64.9 64.5Q65 64.5 64.9 70Q64.8 75.5 65.1 75.8Q65.5 76 66.1 75.4Q66.8 74.8 67 74.1Q67.2 73.5 67.6 73.2Q68 73 68 72.8Q68 72.5 68.2 72.4Q68.5 72.2 68.5 72Q68.5 71.8 68.8 71.6Q69 71.5 69.5 70.5Q70 69.5 70.9 68.6Q71.8 67.8 72 67.1Q72.2 66.5 72.8 66.1Q73.2 65.8 73.2 65.5Q73.2 65.2 74.4 64Q75.5 62.8 75.8 62.1Q76 61.5 76.4 61.2Q76.8 61 77.4 59.8Q78 58.5 78.5 58Q79 57.5 79.1 57Q79.2 56.5 79.5 56.4Q79.8 56.2 79.9 55.8Q80 55.2 80.4 55Q80.8 54.8 80.9 54.1Q81 53.5 81.5 53.1Q82 52.8 82.4 52.8Q82.8 52.8 83 53Q83.2 53.2 83.6 54Q84 54.8 84.4 56.2Q84.8 57.8 84.9 57.8Q85 57.8 85 58.4Q85 59 85.1 59Q85.2 59 85.4 60Q85.5 61 85.8 61.4Q86 61.8 86.5 66.8Q87 71.8 87.4 71.8Q87.8 71.8 87.9 71.2Q88 70.8 88.4 70.5Q88.8 70.2 88.9 69.8Q89 69.2 89.2 69.1Q89.5 69 89.8 68.2Q90 67.5 90.2 67.4Q90.5 67.2 91.8 64.8Q93 62.2 93 61.9Q93 61.5 93.5 60.8Q94 60 94 59.6Q94 59.2 94.9 57.5Q95.8 55.8 96 54.4Q96.2 53 96.8 52.6Q97.2 52.2 97.8 52.5Q98.2 52.8 98.2 53Q98.2 53.2 98.5 53.4Q98.8 53.5 99 54.2Q99.2 55 99.5 55.1Q99.8 55.2 101.5 58.8Q103.2 62.2 103.2 62.6Q103.2 63 103.8 64Q104.2 65 104.2 65.5Q104.2 66 104.6 66.8Q105 67.5 105.5 70.2Q106 73 106.1 73Q106.2 73 106.2 73.5Q106.2 74 106.5 74.5Q106.8 75 107 78.8Q107.2 82.5 107.9 81.9Q108.5 81.2 108.8 80.5Q109 79.8 109.2 79.6Q109.5 79.5 109.9 78.5Q110.2 77.5 110.5 77.4Q110.8 77.2 111 76.5Q111.2 75.8 111.5 75.6Q111.8 75.5 112.2 74.5Q112.8 73.5 112.8 73.1Q112.8 72.8 112.9 72.8Q113 72.8 113 72.4Q113 72 113.1 72Q113.2 72 113.2 71.6Q113.2 71.2 113.5 71Q113.8 70.8 113.8 70.2Q113.8 69.8 114 69.4Q114.2 69 114.2 68.5Q114.2 68 114.5 67.8Q114.8 67.5 115 65.6Q115.2 63.8 115.6 63.1Q116 62.5 116 61.9Q116 61.2 116.1 61.2Q116.2 61.2 116.2 60.6Q116.2 60 116.4 60Q116.5 60 116.5 59.4Q116.5 58.8 116.6 58.8Q116.8 58.8 116.8 57.9Q116.8 57 116.9 57Q117 57 117.1 55.2Q117.2 53.5 117.5 53.2Q117.8 53 118.4 53Q119 53 119.4 53.4Q119.8 53.8 119.8 54Q119.8 54.2 120.2 54.6Q120.8 55 120.8 55.2Q120.8 55.5 121.1 55.8Q121.5 56 121.5 56.2Q121.5 56.5 121.9 56.8Q122.2 57 122.2 57.2Q122.2 57.5 122.6 57.8Q123 58 123 58.2Q123 58.5 123.2 58.6Q123.5 58.8 123.5 59Q123.5 59.2 123.8 59.4Q124 59.5 124.2 60.1Q124.5 60.8 124.9 61Q125.2 61.2 125.2 61.5Q125.2 61.8 125.5 61.9Q125.8 62 125.8 62.2Q125.8 62.5 126 62.6Q126.2 62.8 126.2 63Q126.2 63.2 127 64.1Q127.8 65 127.9 65.5Q128 66 128.5 66.5Q129 67 130.6 70.2Q132.2 73.5 132.2 73.9Q132.2 74.2 132.5 74.5Q132.8 74.8 133 75.9Q133.2 77 133.6 77.5Q134 78 134.1 78.8Q134.2 79.5 134.8 80.1Q135.2 80.8 135.5 80.8Q135.8 80.8 135.9 79.2Q136 77.8 136.1 77.8Q136.2 77.8 136.2 75.9Q136.2 74 136.4 74Q136.5 74 136.5 71.2Q136.5 68.5 136.4 68.5Q136.2 68.5 136.1 65.1Q136 61.8 135.9 61.8Q135.8 61.8 135.8 61Q135.8 60.2 135.6 60.2Q135.5 60.2 135.1 58.2Q134.8 56.2 134.5 55.9Q134.2 55.5 134.1 54.5Q134 53.5 133.9 53.5Q133.8 53.5 133.2 51.6Q132.8 49.8 132.5 49.5Q132.2 49.2 131.9 47.8Q131.5 46.2 130.6 44.6Q129.8 43 129.8 42.6Q129.8 42.2 129.5 42.1Q129.2 42 129.1 41.5Q129 41 128.8 40.9Q128.5 40.8 127.6 39Q126.8 37.2 126.4 37Q126 36.8 125.9 36.2Q125.8 35.8 125.4 35.5Q125 35.2 124.9 34.8Q124.8 34.2 124.4 34Q124 33.8 124 33.5Q124 33.2 123.6 33Q123.2 32.8 122.9 32Q122.5 31.2 119.9 28.6Q117.2 26 117 26Q116.8 26 115.9 25Q115 24 114.8 24Q114.5 24 114 23.4Q113.5 22.8 113.2 22.8Q113 22.8 112.2 22Q111.5 21.2 110.2 20.6Q109 20 108.9 19.8Q108.8 19.5 107.8 19.1Q106.8 18.8 106.6 18.5Q106.5 18.2 105.2 17.6Q104 17 103.6 17Q103.2 17 102.5 16.5Q101.8 16 101.4 16Q101 16 100 15.4Q99 14.8 98.6 14.8Q98.2 14.8 97.8 14.4Q97.2 14 96.5 13.9Q95.8 13.8 95.5 13.5Q95.2 13.2 93.8 13Q92.2 12.8 91.5 12.4Q90.8 12 89.4 11.9Q88 11.8 87.5 11.5Q87 11.2 84.5 11.1Q82 11 82 10.9Q82 10.8 80.9 10.8Q79.8 10.8 79.8 10.6Q79.8 10.5 76.6 10.5Q73.5 10.5 71.8 10.8ZM97.2 59Q97 59.2 96.6 60.9Q96.2 62.5 95.6 63.6Q95 64.8 95 65.1Q95 65.5 94.6 65.9Q94.2 66.2 94.2 66.6Q94.2 67 93.9 67.4Q93.5 67.8 93.2 68.5Q93 69.2 92.8 69.4Q92.5 69.5 92.2 70.2Q92 71 91.6 71.2Q91.2 71.5 91.1 72Q91 72.5 90.1 73.4Q89.2 74.2 89.2 74.5Q89.2 74.8 88.8 75.1Q88.2 75.5 88.2 75.8Q88.2 76 87.6 76.6Q87 77.2 86.8 77.2Q86.5 77.2 86.4 77.6Q86.2 78 86 78Q85.8 78 85.2 78.6Q84.8 79.2 84.2 79.2Q83.8 79.2 83.8 79.4Q83.8 79.5 83.4 79.1Q83 78.8 83.1 76.9Q83.2 75 83.4 75Q83.5 75 83.5 71.1Q83.5 67.2 83.4 67.2Q83.2 67.2 83.2 66Q83.2 64.8 83.1 64.8Q83 64.8 83 64.1Q83 63.5 82.9 63.5Q82.8 63.5 82.6 62.1Q82.5 60.8 82.1 60.1Q81.8 59.5 81.5 59.5Q81.2 59.5 81.2 59.8Q81.2 60 80.9 60.2Q80.5 60.5 80.5 60.8Q80.5 61 80.2 61.1Q80 61.2 79.4 62.5Q78.8 63.8 78 64.5Q77.2 65.2 77 65.9Q76.8 66.5 76.4 66.8Q76 67 75.9 67.5Q75.8 68 75.4 68.2Q75 68.5 75 68.8Q75 69 74.4 69.6Q73.8 70.2 73.8 70.5Q73.8 70.8 73.4 71Q73 71.2 73 71.5Q73 71.8 72.5 72.1Q72 72.5 72 72.8Q72 73 71.5 73.4Q71 73.8 71 74Q71 74.2 70.5 74.6Q70 75 70 75.2Q70 75.5 69.1 76.2Q68.2 77 68.2 77.2Q68.2 77.5 67.6 78Q67 78.5 67 78.8Q67 79 64.9 81Q62.8 83 62.1 82.9Q61.5 82.8 61.5 82.2Q61.5 81.8 61.4 81.8Q61.2 81.8 61.4 81.6Q61.5 81.5 61.5 80Q61.5 78.5 61.6 78.5Q61.8 78.5 61.8 72Q61.8 65.5 61.6 65.4Q61.5 65.2 61 65.4Q60.5 65.5 60.2 66Q60 66.5 59.6 66.8Q59.2 67 59.2 67.2Q59.2 67.5 58.8 67.9Q58.2 68.2 58.2 68.5Q58.2 68.8 57.6 69.2Q57 69.8 57 70Q57 70.2 56 71.2Q55 72.2 54.6 73Q54.2 73.8 53.8 74.1Q53.2 74.5 53.2 74.8Q53.2 75 52.9 75.2Q52.5 75.5 52.2 76.1Q52 76.8 51.6 77Q51.2 77.2 51 78Q50.8 78.8 50.5 78.9Q50.2 79 50.1 79.5Q50 80 49.6 80.2Q49.2 80.5 49.1 81Q49 81.5 48.8 81.6Q48.5 81.8 48.2 82.5Q48 83.2 47.8 83.4Q47.5 83.5 47.2 84.2Q47 85 46.8 85.1Q46.5 85.2 45.8 86.8Q45 88.2 44.9 89Q44.8 89.8 44.5 90Q44.2 90.2 44.2 90.6Q44.2 91 43.6 92.2Q43 93.5 43 94Q43 94.5 42.6 95.2Q42.2 96 42.2 96.5Q42.2 97 42.1 97Q42 97 42 97.5Q42 98 41.9 98Q41.8 98 41.8 98.5Q41.8 99 41.5 99.5Q41.2 100 40.9 104Q40.5 108 40.4 108Q40.2 108 40.2 108.9Q40.2 109.8 40 110.1Q39.8 110.5 39.4 110.5Q39 110.5 38.5 110Q38 109.5 35.9 104.8Q33.8 100 33.5 99.9Q33.2 99.8 33.1 99.2Q33 98.8 32.8 98.6Q32.5 98.5 32 97.5Q31.5 96.5 31.1 96.2Q30.8 96 30.8 95.8Q30.8 95.5 29.5 94.2Q28.2 93 26.5 92.1Q24.8 91.2 24.1 91.2Q23.5 91.2 23.5 91.1Q23.5 91 22.4 91.1Q21.2 91.2 20.2 91.8Q19.2 92.2 18.6 92.9Q18 93.5 18 93.8Q18 94 17.6 94.2Q17.2 94.5 16.8 95.5Q16.2 96.5 15.9 98.4Q15.5 100.2 15.4 100.2Q15.2 100.2 15.2 101.4Q15.2 102.5 15.1 102.5Q15 102.5 15.1 105.8Q15.2 109 15.4 109Q15.5 109 15.5 109.5Q15.5 110 15.8 110.4Q16 110.8 16.1 111.6Q16.2 112.5 16.6 113Q17 113.5 17 113.9Q17 114.2 17.6 115.5Q18.2 116.8 18.5 116.9Q18.8 117 19 117.8Q19.2 118.5 19.5 118.6Q19.8 118.8 19.9 119.2Q20 119.8 20.4 120Q20.8 120.2 20.8 120.5Q20.8 120.8 21.1 121Q21.5 121.2 21.9 122Q22.2 122.8 23 123.4Q23.8 124 23.8 124.2Q23.8 124.5 25 125.8Q26.2 127 26.5 127Q26.8 127 28.1 128.4Q29.5 129.8 30 129.9Q30.5 130 30.9 130.4Q31.2 130.8 32.2 130.9Q33.2 131 33.2 131.1Q33.2 131.2 34.5 131.1Q35.8 131 36.2 130.8Q36.8 130.5 37.2 130Q37.8 129.5 38.1 128.8Q38.5 128 39.1 127.9Q39.8 127.8 40.1 128.2Q40.5 128.8 41 130.8Q41.5 132.8 42.8 135.2Q44 137.8 44.4 138Q44.8 138.2 45.1 139Q45.5 139.8 46.1 140.2Q46.8 140.8 47 141.4Q47.2 142 47.8 142.4Q48.2 142.8 48.2 143Q48.2 143.2 48.6 143.5Q49 143.8 49 144Q49 144.2 49.4 144.5Q49.8 144.8 49.8 145Q49.8 145.2 50.1 145.5Q50.5 145.8 50.9 146.5Q51.2 147.2 51.8 147.6Q52.2 148 52.2 148.2Q52.2 148.5 53.2 149.4Q54.2 150.2 54.4 150.6Q54.5 151 54.8 151Q55 151 55 151.2Q55 151.5 56.2 152.8Q57.5 154 57.9 154.1Q58.2 154.2 58.2 154.5Q58.2 154.8 58.5 154.8Q58.8 154.8 60 156Q61.2 157.2 61.5 157.2Q61.8 157.2 62.1 157.8Q62.5 158.2 62.8 158.2Q63 158.2 63.4 158.8Q63.8 159.2 64 159.2Q64.2 159.2 65 160Q65.8 160.8 66.2 160.9Q66.8 161 67 161.4Q67.2 161.8 68 162Q68.8 162.2 68.9 162.5Q69 162.8 69.8 163Q70.5 163.2 70.6 163.5Q70.8 163.8 71.5 164Q72.2 164.2 72.4 164.5Q72.5 164.8 73.2 165Q74 165.2 74.1 165.5Q74.2 165.8 74.6 165.8Q75 165.8 75.4 166.1Q75.8 166.5 76.6 166.8Q77.5 167 77.6 167.2Q77.8 167.5 78.2 167.8Q78.8 168 79.1 168Q79.5 168 80 168.4Q80.5 168.8 80.9 168.8Q81.2 168.8 81.5 169Q81.8 169.2 82.1 169.2Q82.5 169.2 82.8 169.5Q83 169.8 83.4 169.8Q83.8 169.8 83.8 169.9Q83.8 170 84.1 170Q84.5 170 84.5 170.1Q84.5 170.2 84.9 170.2Q85.2 170.2 86 170.6Q86.8 171 87.2 171Q87.8 171 87.8 171.1Q87.8 171.2 89.6 171.6Q91.5 172 91.5 172.1Q91.5 172.2 92.8 172.4Q94 172.5 94 172.6Q94 172.8 96.9 172.8Q99.8 172.8 100.8 172.2Q101.8 171.8 102.1 171.8Q102.5 171.8 102.6 171.5Q102.8 171.2 103.6 170.9Q104.5 170.5 106.1 168.8Q107.8 167 108 167Q108.2 167 109.1 166Q110 165 110.2 165Q110.5 165 112.2 163.2Q114 161.5 114 161.2Q114 161 115.6 159.4Q117.2 157.8 117.2 157.5Q117.2 157.2 117.9 156.8Q118.5 156.2 119 155Q119.5 153.8 119.8 153.6Q120 153.5 120.5 152.4Q121 151.2 121.2 151.1Q121.5 151 123.1 147.8Q124.8 144.5 124.8 144.1Q124.8 143.8 125.1 143.1Q125.5 142.5 125.5 141.8Q125.5 141 125.2 140.9Q125 140.8 125 140.5Q125 140.2 125.4 140Q125.8 139.8 125.8 139.5Q125.8 139.2 126.4 138.8Q127 138.2 127 138Q127 137.8 127.5 137.2Q128 136.8 128.2 135.5Q128.5 134.2 128.6 134.2Q128.8 134.2 128.8 131.1Q128.8 128 128.6 128Q128.5 128 128.5 127.1Q128.5 126.2 128.4 126.2Q128.2 126.2 128.2 125.4Q128.2 124.5 128.1 124.5Q128 124.5 127.6 119.5Q127.2 114.5 127.4 114.5Q127.5 114.5 127.5 113.6Q127.5 112.8 127.6 112.8Q127.8 112.8 127.8 110.8Q127.8 108.8 127.9 108.8Q128 108.8 128.5 104.6Q129 100.5 129.1 100.5Q129.2 100.5 129.4 99.1Q129.5 97.8 129.6 97.8Q129.8 97.8 129.8 96.6Q129.8 95.5 129.9 95.5Q130 95.5 130 94.8Q130 94 130.1 94Q130.2 94 130.6 89.8Q131 85.5 131.1 85.5Q131.2 85.5 131.2 84.4Q131.2 83.2 130.4 81.8Q129.5 80.2 129.1 78.5Q128.8 76.8 128.5 76.5Q128.2 76.2 128.1 75.4Q128 74.5 127.4 73.4Q126.8 72.2 126.8 71.9Q126.8 71.5 126.2 70.5Q125.8 69.5 125.5 69.4Q125.2 69.2 125 68.4Q124.8 67.5 124.5 67.4Q124.2 67.2 124.1 66.6Q124 66 123.8 65.9Q123.5 65.8 123.2 65Q123 64.2 122.5 63.8Q122 63.2 121.9 62.8Q121.8 62.2 121.5 62.1Q121.2 62 120.9 61.2Q120.5 60.5 120 60.5Q119.5 60.5 119.2 62.6Q119 64.8 118.9 64.8Q118.8 64.8 118.5 66.2Q118.2 67.8 118.1 67.8Q118 67.8 118 68.1Q118 68.5 117.6 69.2Q117.2 70 117.1 71Q117 72 116.6 72.5Q116.2 73 116 74.1Q115.8 75.2 115.5 75.5Q115.2 75.8 115.1 76.5Q115 77.2 114.4 78.5Q113.8 79.8 113.5 79.9Q113.2 80 113.1 80.5Q113 81 112.6 81.2Q112.2 81.5 112.1 82Q112 82.5 111.6 82.8Q111.2 83 111 83.6Q110.8 84.2 110.2 84.6Q109.8 85 109.8 85.2Q109.8 85.5 109.2 85.9Q108.8 86.2 108.8 86.5Q108.8 86.8 107.9 87.5Q107 88.2 107 88.5Q107 88.8 106.6 88.9Q106.2 89 106.2 89.2Q106.2 89.5 105.5 90.1Q104.8 90.8 104.8 91Q104.8 91.2 104.5 91.2Q104.2 91.2 103.8 91.8Q103.2 92.2 102.9 92.2Q102.5 92.2 102.4 91.8Q102.2 91.2 102.6 90.6Q103 90 103.1 88.4Q103.2 86.8 103.4 86.8Q103.5 86.8 103.5 85.4Q103.5 84 103.6 84Q103.8 84 103.8 81.8Q103.8 79.5 103.6 79.5Q103.5 79.5 103.5 79Q103.5 78.5 103.2 78Q103 77.5 102.9 75.1Q102.8 72.8 102.4 72Q102 71.2 101.9 70.1Q101.8 69 101.6 69Q101.5 69 101.5 68.6Q101.5 68.2 101.1 67.5Q100.8 66.8 100.8 66.2Q100.8 65.8 100.5 65.5Q100.2 65.2 100 64.1Q99.8 63 99.4 62.5Q99 62 98.9 61.1Q98.8 60.2 98.5 59.8Q98.2 59.2 97.9 59Q97.5 58.8 97.2 59ZM24.1 95.1Q25.2 95.2 25.8 95.5Q26.2 95.8 26.4 96Q26.5 96.2 26.8 96.2Q27 96.2 27.6 96.9Q28.2 97.5 28.2 97.8Q28.2 98 28.6 98.2Q29 98.5 29.6 99.8Q30.2 101 30.8 102.8Q31.2 104.5 31.8 105.2Q32.2 106 32.5 107.5Q32.8 109 32.6 109Q32.5 109 32.5 109.8Q32.5 110.5 32.4 110.5Q32.2 110.5 32.2 111.2Q32.2 112 32.1 112Q32 112 32 112.9Q32 113.8 32.1 113.8Q32.2 113.8 32.2 114.1Q32.2 114.5 33.1 115.4Q34 116.2 34 116.6Q34 117 34.2 117.4Q34.5 117.8 34.5 118.8Q34.5 119.8 34.2 120.2Q34 120.8 33.8 120.8Q33.5 120.8 33.1 121.1Q32.8 121.5 32.4 121.5Q32 121.5 32 121.6Q32 121.8 31.2 121.6Q30.5 121.5 30.6 120.9Q30.8 120.2 31.2 119.9Q31.8 119.5 31.9 119Q32 118.5 31.9 118.5Q31.8 118.5 31.8 118.1Q31.8 117.8 31 117.1Q30.2 116.5 29.9 115.8Q29.5 115 29.6 112.5Q29.8 110 29.5 109.8Q29.2 109.5 28.8 109.5Q28.2 109.5 28 110Q27.8 110.5 27.5 110.6Q27.2 110.8 26.9 111.9Q26.5 113 26 113.1Q25.5 113.2 25.4 113Q25.2 112.8 25.2 112.1Q25.2 111.5 26 110Q26.8 108.5 26.8 108Q26.8 107.5 27 107Q27.2 106.5 27.8 106.2Q28.2 106 28.5 105.6Q28.8 105.2 28.8 104.8Q28.8 104.2 28.5 104.1Q28.2 104 27.6 102.6Q27 101.2 26.5 100.8Q26 100.2 24.8 100Q23.5 99.8 23.5 98.9Q23.5 98 22.9 97.9Q22.2 97.8 22.1 98Q22 98.2 21.6 98.4Q21.2 98.5 20.9 99.4Q20.5 100.2 20.1 100.5Q19.8 100.8 19.8 101.1Q19.8 101.5 19.5 101.5Q19.2 101.5 19.2 100.2Q19.2 99 19.8 98Q20.2 97 20.5 97Q20.8 97 21 96.5Q21.2 96 21.5 96Q21.8 96 22 95.6Q22.2 95.2 22.6 95.2Q23 95.2 23 95.1Q23 95 24.1 95.1ZM22.9 116.1Q23.5 116.2 23.9 116.8Q24.2 117.2 25.1 117.6Q26 118 26.1 118.2Q26.2 118.5 26.9 118.8Q27.5 119 27.9 119.5Q28.2 120 28.5 120Q28.8 120 29.1 120.6Q29.5 121.2 29.9 121.2Q30.2 121.2 29.9 122.1Q29.5 123 28.9 123Q28.2 123 28.1 122.6Q28 122.2 27.4 121.8Q26.8 121.2 26.8 121Q26.8 120.8 26.5 120.8Q26.2 120.8 26.2 120.5Q26.2 120.2 25 119.6Q23.8 119 23.1 118.4Q22.5 117.8 22.2 117.2Q22 116.8 22.1 116.4Q22.2 116 22.9 116.1ZM36.1 134.1Q35 134.5 34.6 134.9Q34.2 135.2 34.2 135.5Q34.2 135.8 34.6 136.1Q35 136.5 35.1 137.1Q35.2 137.8 35.5 137.9Q35.8 138 36 138.8Q36.2 139.5 36.5 139.6Q36.8 139.8 37.6 141.9Q38.5 144 39 144Q39.5 144 39.6 142.9Q39.8 141.8 39.9 141.5Q40 141.2 40.8 141Q41.5 140.8 41.5 140.2Q41.5 139.8 41.2 139.5Q41 139.2 40.9 138.6Q40.8 138 40.4 137.6Q40 137.2 39.9 136.6Q39.8 136 39.4 135.6Q39 135.2 38.9 134.6Q38.8 134 38 133.9Q37.2 133.8 36.1 134.1ZM48.6 151Q48.5 151 48.5 151.9Q48.5 152.8 48.6 152.8Q48.8 152.8 48.9 155.8Q49 158.8 48.9 158.8Q48.8 158.8 48.6 163Q48.5 167.2 48.4 167.2Q48.2 167.2 48 169.2Q47.8 171.2 47.6 171.2Q47.5 171.2 47.1 172.5Q46.8 173.8 46.1 174.5Q45.5 175.2 45.5 175.8Q45.5 176.2 45.8 176.5Q46 176.8 46.9 176.9Q47.8 177 48.4 177.4Q49 177.8 49.5 177.8Q50 177.8 50 177.9Q50 178 50.5 178Q51 178 51 178.1Q51 178.2 51.5 178.2Q52 178.2 52 178.4Q52 178.5 52.5 178.5Q53 178.5 53.5 178.8Q54 179 54.6 179Q55.2 179 55.2 179.1Q55.2 179.2 55.8 179.2Q56.2 179.2 56.2 179.4Q56.2 179.5 57.2 179.6Q58.2 179.8 58.8 180Q59.2 180.2 59.9 180.2Q60.5 180.2 60.5 180.4Q60.5 180.5 64 181.2Q67.5 182 67.8 182.2Q68 182.5 69 182.8Q70 183 70.8 183.5Q71.5 184 72.1 184.1Q72.8 184.2 72.9 184.5Q73 184.8 73.5 184.9Q74 185 74.2 185.4Q74.5 185.8 75.1 186Q75.8 186.2 77 187.5Q78.2 188.8 78.5 188.8Q78.8 188.8 79.2 189.4Q79.8 190 80 190Q80.2 190 80.6 190.5Q81 191 81.2 191Q81.5 191 81.9 191.5Q82.2 192 82.5 192Q82.8 192 83.2 192.6Q83.8 193.2 84 193.2Q84.2 193.2 84.4 193.5Q84.5 193.8 85 194Q85.5 194.2 86.1 194.2Q86.8 194.2 86.9 194Q87 193.8 86.9 193.1Q86.8 192.5 86.4 192.1Q86 191.8 86 191.4Q86 191 85.8 190.9Q85.5 190.8 85.5 190.5Q85.5 190.2 85.2 190.1Q85 190 85 189.6Q85 189.2 84.5 188.5Q84 187.8 83.9 186.9Q83.8 186 83.6 186Q83.5 186 83.4 185.1Q83.2 184.2 83.1 184.2Q83 184.2 83 182.9Q83 181.5 82.9 181.5Q82.8 181.5 82.9 177.8Q83 174 82.6 173.6Q82.2 173.2 81.1 173Q80 172.8 78.4 171.9Q76.8 171 75.5 170.6Q74.2 170.2 72.8 169.5Q71.2 168.8 71.1 168.5Q71 168.2 70.6 168.2Q70.2 168.2 69.9 167.9Q69.5 167.5 68.8 167.2Q68 167 67.9 166.8Q67.8 166.5 66.9 166.1Q66 165.8 65.9 165.5Q65.8 165.2 65.2 165.1Q64.8 165 64.5 164.6Q64.2 164.2 64 164.2Q63.8 164.2 63.1 163.6Q62.5 163 62.2 163Q62 163 61.8 162.6Q61.5 162.2 61.2 162.2Q61 162.2 60.8 161.9Q60.5 161.5 60.2 161.5Q60 161.5 59.8 161.1Q59.5 160.8 59.2 160.8Q59 160.8 58.5 160.1Q58 159.5 57.8 159.5Q57.5 159.5 56.2 158.2Q55 157 54.8 157Q54.5 157 53.4 155.9Q52.2 154.8 52.2 154.5Q52.2 154.2 51.5 153.6Q50.8 153 50.8 152.8Q50.8 152.5 50.1 151.9Q49.5 151.2 49.1 151.2Q48.8 151.2 48.8 151.1Q48.8 151 48.6 151ZM40.1 178Q39.5 178.5 39.5 178.8Q39.5 179 39.2 179.1Q39 179.2 38.6 180.1Q38.2 181 37.6 181.8Q37 182.5 36.9 184Q36.8 185.5 36.5 186Q36.2 186.5 35.6 186.9Q35 187.2 34.4 188.6Q33.8 190 33.4 190.4Q33 190.8 33 191.1Q33 191.5 32.6 191.9Q32.2 192.2 32.2 192.6Q32.2 193 31.8 193.8Q31.2 194.5 31.1 195.2Q31 196 30.1 197.6Q29.2 199.2 29.2 199.8Q29.2 200.2 29.1 200.2Q29 200.2 29 200.6Q29 201 28.9 201Q28.8 201 28.8 201.4Q28.8 201.8 28.4 202.5Q28 203.2 28 203.8Q28 204.2 27.9 204.2Q27.8 204.2 27.5 205.6Q27.2 207 27.1 207Q27 207 27 207.6Q27 208.2 26.9 208.2Q26.8 208.2 26.5 209.6Q26.2 211 26.1 211Q26 211 25.5 214.5Q25 218 24.9 218Q24.8 218 24.4 220.8Q24 223.5 23.9 223.5Q23.8 223.5 23.5 227.2Q23.2 231 23.1 231Q23 231 23 233.5Q23 236 22.9 236Q22.8 236 22.8 241.1Q22.8 246.2 22.9 246.2Q23 246.2 23.1 250.1Q23.2 254 23.4 254Q23.5 254 23.5 255Q23.5 256 23.6 256Q23.8 256 23.8 256.9Q23.8 257.8 23.9 257.8Q24 257.8 24 259.9Q24 262 23.8 262.4Q23.5 262.8 23.4 264Q23.2 265.2 23.1 265.2Q23 265.2 23.1 273.5Q23.2 281.8 23.4 281.8Q23.5 281.8 23.8 284.2Q24 286.8 24.1 286.8Q24.2 286.8 24.2 287.2Q24.2 287.8 24.5 288.1Q24.8 288.5 25 290.1Q25.2 291.8 25.5 292Q25.8 292.2 26 293.4Q26.2 294.5 26.5 294.8Q26.8 295 26.8 295.4Q26.8 295.8 27 296Q27.2 296.2 27.2 296.6Q27.2 297 27.6 297.8Q28 298.5 27.8 300.2Q27.5 302 27.6 302Q27.8 302 27.8 303Q27.8 304 27.9 304Q28 304 28.1 306.5Q28.2 309 28.4 309Q28.5 309 28.8 312.2Q29 315.5 29.1 315.5Q29.2 315.5 29.2 317Q29.2 318.5 29.4 318.5Q29.5 318.5 29.6 320.6Q29.8 322.8 29.9 322.8Q30 322.8 30.2 331.1Q30.5 339.5 30.6 339.5Q30.8 339.5 31 345.1Q31.2 350.8 31.4 350.8Q31.5 350.8 31.9 352.6Q32.2 354.5 32.6 355.1Q33 355.8 33.1 356.6Q33.2 357.5 34.6 360.2Q36 363 35.9 363.9Q35.8 364.8 35.5 364.8Q35.2 364.8 35.2 364.5Q35.2 364.2 34.6 363.9Q34 363.5 34 363.2Q34 363 33.6 362.8Q33.2 362.5 32.6 361.2Q32 360 31.4 358Q30.8 356 30.5 356Q30.2 356 30.1 357.2Q30 358.5 29.9 358.5Q29.8 358.5 29.9 366.2Q30 374 30.1 374Q30.2 374 30.2 375Q30.2 376 30.5 376.4Q30.8 376.8 31 378.4Q31.2 380 31.4 380Q31.5 380 31.8 381.2Q32 382.5 32.1 382.5Q32.2 382.5 32.2 382.9Q32.2 383.2 32.6 384Q33 384.8 33 385.2Q33 385.8 33.5 386.6Q34 387.5 34.2 388.6Q34.5 389.8 34.8 390Q35 390.2 35 390.6Q35 391 35.5 391.9Q36 392.8 36.2 393.8Q36.5 394.8 36.8 395Q37 395.2 37.2 396.4Q37.5 397.5 37.9 398.1Q38.2 398.8 38.4 399.6Q38.5 400.5 38.8 400.8Q39 401 39.1 401.9Q39.2 402.8 39.9 402.8Q40.5 402.8 41.4 401.9Q42.2 401 42.2 400.8Q42.2 400.5 42.8 400.1Q43.2 399.8 43.2 399.5Q43.2 399.2 43.8 398.9Q44.2 398.5 44.2 398.2Q44.2 398 44.8 397.6Q45.2 397.2 45.6 396.5Q46 395.8 46.4 395.5Q46.8 395.2 46.9 394.8Q47 394.2 47.4 394Q47.8 393.8 48 393Q48.2 392.2 48.5 392.1Q48.8 392 50.5 388.2Q52.2 384.5 52.5 384.4Q52.8 384.2 52.9 383.6Q53 383 53.2 382.9Q53.5 382.8 53.5 382.5Q53.5 382.2 53.8 382.1Q54 382 54.1 381.5Q54.2 381 54.9 380.4Q55.5 379.8 55.5 379.5Q55.5 379.2 55.9 379Q56.2 378.8 56.2 378.5Q56.2 378.2 56.8 377.8Q57.2 377.2 57.5 377.2Q57.8 377.2 57.9 377Q58 376.8 58.2 376.8Q58.5 376.8 58.6 376.5Q58.8 376.2 59.2 376Q59.8 375.8 61.4 375.5Q63 375.2 63.4 375Q63.8 374.8 63.8 373.8Q63.8 372.8 63.9 372.8Q64 372.8 64.1 371.9Q64.2 371 64.5 370.5Q64.8 370 65.5 369.2Q66.2 368.5 66.5 368.5Q66.8 368.5 66.9 368.2Q67 368 67.8 367.9Q68.5 367.8 69 367.4Q69.5 367 70.4 366.9Q71.2 366.8 71.5 366.5Q71.8 366.2 73 366Q74.2 365.8 74.6 365.5Q75 365.2 76.8 365Q78.5 364.8 78.5 364.6Q78.5 364.5 80 364.2Q81.5 364 81.5 363.9Q81.5 363.8 82.8 363.8Q84 363.8 84.5 364Q85 364.2 84.8 364.9Q84.5 365.5 82.9 365.9Q81.2 366.2 81.2 366.4Q81.2 366.5 79.4 367Q77.5 367.5 77.2 367.8Q77 368 76.5 368Q76 368 75.4 368.4Q74.8 368.8 74.2 368.8Q73.8 368.8 72.8 369.2Q71.8 369.8 71 369.9Q70.2 370 68.6 371.1Q67 372.2 67 372.6Q67 373 66.8 373.2Q66.5 373.5 66.5 374.8Q66.5 376 66.6 376Q66.8 376 66.9 378.1Q67 380.2 67.1 380.2Q67.2 380.2 67.2 381.1Q67.2 382 67.4 382Q67.5 382 67.5 382.6Q67.5 383.2 67.6 383.2Q67.8 383.2 67.8 383.9Q67.8 384.5 67.9 384.5Q68 384.5 68 385.2Q68 386 68.1 386Q68.2 386 68.2 386.5Q68.2 387 68.5 387.4Q68.8 387.8 69 389.2Q69.2 390.8 69.6 391.4Q70 392 70 392.6Q70 393.2 70.1 393.2Q70.2 393.2 70.4 394.2Q70.5 395.2 70.6 395.2Q70.8 395.2 70.9 396.1Q71 397 71.4 397.8Q71.8 398.5 71.8 399Q71.8 399.5 72 399.9Q72.2 400.2 72.2 400.8Q72.2 401.2 72.5 401.5Q72.8 401.8 73 403Q73.2 404.2 73.6 404.9Q74 405.5 74.1 406.4Q74.2 407.2 74.6 407.8Q75 408.2 75.1 409Q75.2 409.8 75.6 410.1Q76 410.5 76.1 411.2Q76.2 412 77.4 414.2Q78.5 416.5 78.8 416.6Q79 416.8 79.2 417.5Q79.5 418.2 80.1 419Q80.8 419.8 81 420.5Q81.2 421.2 81.5 421.4Q81.8 421.5 81.8 421.8Q81.8 422 82 422.1Q82.2 422.2 82.8 423.2Q83.2 424.2 83.6 424.5Q84 424.8 84.1 425.2Q84.2 425.8 85 426.5Q85.8 427.2 86 427.9Q86.2 428.5 87.6 429.9Q89 431.2 89 431.5Q89 431.8 89.6 432.2Q90.2 432.8 90.2 433Q90.2 433.2 91.2 434.1Q92.2 435 92.2 435.2Q92.2 435.5 95 438.2Q97.8 441 98 441Q98.2 441 98.2 441.2Q98.2 441.5 98.5 441.5Q98.8 441.5 99.9 442.8Q101 444 101.2 444Q101.5 444 102.9 445.4Q104.2 446.8 105.2 447.2Q106.2 447.8 106.6 447.8Q107 447.8 107.2 448Q107.5 448.2 108.4 448.4Q109.2 448.5 109.2 448.6Q109.2 448.8 111.5 448.8Q113.8 448.8 113.8 448.6Q113.8 448.5 114.4 448.5Q115 448.5 115.5 448.2Q116 448 117.2 447.9Q118.5 447.8 119.2 447.4Q120 447 120.6 447Q121.2 447 121.2 446.9Q121.2 446.8 121.6 446.8Q122 446.8 122 446.6Q122 446.5 122.4 446.5Q122.8 446.5 123.5 446.1Q124.2 445.8 124.8 445.8Q125.2 445.8 125.2 445.6Q125.2 445.5 127.1 445Q129 444.5 129.2 444.2Q129.5 444 130.2 443.9Q131 443.8 131.5 443.4Q132 443 132.8 442.9Q133.5 442.8 135 442Q136.5 441.2 137.2 441.1Q138 441 138.2 440.8Q138.5 440.5 140.2 440.1Q142 439.8 142.1 439Q142.2 438.2 143.5 438.5Q144.8 438.8 145.8 439.2Q146.8 439.8 148.2 439.9Q149.8 440 149.8 440.1Q149.8 440.2 151.5 440.2Q153.2 440.2 153.2 440.4Q153.2 440.5 156.2 440.4Q159.2 440.2 159.2 440.1Q159.2 440 161.1 439.9Q163 439.8 163.8 439.4Q164.5 439 165.1 439Q165.8 439 165.8 438.9Q165.8 438.8 166.2 438.8Q166.8 438.8 166.8 438.6Q166.8 438.5 168.2 438.1Q169.8 437.8 169.9 437.5Q170 437.2 171 437Q172 436.8 173.5 435.9Q175 435 175.6 434.9Q176.2 434.8 176.6 434.4Q177 434 177.6 433.9Q178.2 433.8 178.4 433.5Q178.5 433.2 181 432Q183.5 430.8 183.8 430.4Q184 430 184.5 429.9Q185 429.8 185.2 429.4Q185.5 429 186.1 428.8Q186.8 428.5 187.4 427.8Q188 427 188.2 427Q188.5 427 189.4 426Q190.2 425 190.5 425Q190.8 425 191.1 424.5Q191.5 424 191.8 424Q192 424 193.9 422.1Q195.8 420.2 195.8 420Q195.8 419.8 196 419.6Q196.2 419.5 196.2 419.2Q196.2 419 196.5 418.9Q196.8 418.8 196.8 418.5Q196.8 418.2 197 418.1Q197.2 418 197.2 417.8Q197.2 417.5 197.5 417.4Q197.8 417.2 197.9 416.8Q198 416.2 198.4 416Q198.8 415.8 198.9 415.2Q199 414.8 199.2 414.6Q199.5 414.5 199.9 413.8Q200.2 413 200.2 412.6Q200.2 412.2 200.5 412Q200.8 411.8 200.8 411.4Q200.8 411 200.9 411Q201 411 201 410.6Q201 410.2 201.1 410.2Q201.2 410.2 201.2 409.9Q201.2 409.5 201.6 408.8Q202 408 202 407.5Q202 407 202.4 406.2Q202.8 405.5 203.1 403.6Q203.5 401.8 203.6 401.8Q203.8 401.8 203.9 400.1Q204 398.5 204.1 398.5Q204.2 398.5 204.4 397.1Q204.5 395.8 204.6 395.8Q204.8 395.8 204.8 393.6Q204.8 391.5 204.9 391.5Q205 391.5 204.9 385.6Q204.8 379.8 204.6 379.8Q204.5 379.8 204.5 379.1Q204.5 378.5 204.4 378.5Q204.2 378.5 204.1 377Q204 375.5 203.9 375.5Q203.8 375.5 203.8 374.9Q203.8 374.2 203.6 374.2Q203.5 374.2 203.4 373.4Q203.2 372.5 203.1 372.5Q203 372.5 202.8 371.4Q202.5 370.2 202.2 370Q202 369.8 202 369.4Q202 369 201.8 368.5Q201.5 368 201.2 367.9Q201 367.8 201 367.4Q201 367 200 365.2Q199 363.5 199 363.1Q199 362.8 198.4 361.5Q197.8 360.2 197.5 360.1Q197.2 360 197 359.4Q196.8 358.8 196.2 358.4Q195.8 358 195.8 357.8Q195.8 357.5 195.4 357.6Q195 357.8 195 358.4Q195 359 195.4 359.4Q195.8 359.8 195.9 360.4Q196 361 196.1 361Q196.2 361 196.2 362Q196.2 363 196.1 363Q196 363 196.1 364.6Q196.2 366.2 196 366.8Q195.8 367.2 194.8 367.8Q193.8 368.2 193.2 369Q192.8 369.8 192.8 370.1Q192.8 370.5 192 371.1Q191.2 371.8 190.4 371.9Q189.5 372 189.5 371.9Q189.5 371.8 188.4 371.5Q187.2 371.2 187 371.5Q186.8 371.8 186.5 372.6Q186.2 373.5 185.1 374.4Q184 375.2 183.1 375.4Q182.2 375.5 182.2 375.4Q182.2 375.2 181.4 375.2Q180.5 375.2 180.5 375.1Q180.5 375 179.6 374.9Q178.8 374.8 173.8 371.8Q168.8 368.8 165.4 368.4Q162 368 161.4 367.6Q160.8 367.2 159.6 367.1Q158.5 367 158.5 366.9Q158.5 366.8 156.9 366.4Q155.2 366 154.4 365.5Q153.5 365 153 365Q152.5 365 152 364.6Q151.5 364.2 151.1 364.2Q150.8 364.2 150.2 363.9Q149.8 363.5 149 363.4Q148.2 363.2 147.8 363.8Q147.2 364.2 147.2 364.6Q147.2 365 146.9 365.6Q146.5 366.2 146.5 367Q146.5 367.8 146.8 368Q147 368.2 147.6 368.4Q148.2 368.5 148.2 368.6Q148.2 368.8 152.5 369Q156.8 369.2 156.8 369.4Q156.8 369.5 155.4 369.8Q154 370 153.6 370.2Q153.2 370.5 152.6 370.5Q152 370.5 152 370.6Q152 370.8 151 370.8Q150 370.8 149.6 371.1Q149.2 371.5 149.6 371.9Q150 372.2 150.2 372.2Q150.5 372.2 150.4 372.5Q150.2 372.8 146.5 373Q142.8 373.2 142.6 373.5Q142.5 373.8 141.9 374Q141.2 374.2 141.2 374.5Q141.2 374.8 140.9 374.9Q140.5 375 140.1 375.5Q139.8 376 139 376.4Q138.2 376.8 137.9 376.8Q137.5 376.8 137.5 376.9Q137.5 377 136.8 377Q136 377 136 376.9Q136 376.8 135.5 376.8Q135 376.8 134.6 376.5Q134.2 376.2 132.6 376Q131 375.8 130.8 375.5Q130.5 375.2 129.2 375Q128 374.8 126.4 373.9Q124.8 373 124.2 373Q123.8 373 123.8 372.9Q123.8 372.8 123.2 372.8Q122.8 372.8 122.1 372.4Q121.5 372 120.6 371.9Q119.8 371.8 118.4 371Q117 370.2 114.5 369.5Q112 368.8 108.2 366.9Q104.5 365 103 364.9Q101.5 364.8 101.1 364Q100.8 363.2 100.5 363.2Q100.2 363.2 100 362.9Q99.8 362.5 99.1 362.2Q98.5 362 98.2 361.6Q98 361.2 96.5 360.5Q95 359.8 94.9 359.5Q94.8 359.2 94.5 359.2Q94.2 359.2 93.4 358.5Q92.5 357.8 91.2 357.4Q90 357 89.1 356Q88.2 355 87.8 354.9Q87.2 354.8 87.1 354.5Q87 354.2 86.4 354Q85.8 353.8 85.5 353.4Q85.2 353 85 353Q84.8 353 84.2 352.5Q83.8 352 82.9 351.6Q82 351.2 81.8 350.9Q81.5 350.5 81.2 350.5Q81 350.5 80.4 349.9Q79.8 349.2 78.5 348.6Q77.2 348 76.5 347.2Q75.8 346.5 75 346.1Q74.2 345.8 73.9 345.8Q73.5 345.8 73.5 345.6Q73.5 345.5 72.9 345.5Q72.2 345.5 72.2 345.4Q72.2 345.2 71.1 345Q70 344.8 70 344.5Q70 344.2 70.2 344.1Q70.5 344 70.5 343.6Q70.5 343.2 70.2 343.1Q70 343 70 342.8Q70 342.5 69.5 342.2Q69 342 68.8 341.6Q68.5 341.2 68.2 341.2Q68 341.2 67.6 340.8Q67.2 340.2 67 340.2Q66.8 340.2 66.2 339.6Q65.8 339 65.5 339Q65.2 339 65.1 338.6Q65 338.2 64.6 338.1Q64.2 338 61.1 334.9Q58 331.8 58 331.5Q58 331.2 57.6 331Q57.2 330.8 56.6 329.5Q56 328.2 55.8 328.1Q55.5 328 55.1 327.2Q54.8 326.5 54.8 326.1Q54.8 325.8 54.5 325.5Q54.2 325.2 54.2 324.9Q54.2 324.5 54 324.2Q53.8 324 53.8 323.6Q53.8 323.2 53.5 323Q53.2 322.8 53 321.6Q52.8 320.5 52.5 320.2Q52.2 320 52.2 319.6Q52.2 319.2 52.1 319.2Q52 319.2 52 318.9Q52 318.5 51.6 317.9Q51.2 317.2 51.1 316.4Q51 315.5 50.9 315.5Q50.8 315.5 50.8 315.1Q50.8 314.8 50.4 314Q50 313.2 49.9 312.2Q49.8 311.2 49.6 311.2Q49.5 311.2 49.4 310.4Q49.2 309.5 49.1 309.5Q49 309.5 49 308.9Q49 308.2 48.9 308.2Q48.8 308.2 48.5 307Q48.2 305.8 48.1 305.8Q48 305.8 47.9 304.6Q47.8 303.5 47.4 302.8Q47 302 47 301.2Q47 300.5 46.9 300.5Q46.8 300.5 46.6 299.5Q46.5 298.5 46.4 298.5Q46.2 298.5 46.1 297.6Q46 296.8 45.9 296.8Q45.8 296.8 45.8 296.1Q45.8 295.5 45.6 295.5Q45.5 295.5 45.5 295Q45.5 294.5 45.4 294.5Q45.2 294.5 45.2 294Q45.2 293.5 45 293Q44.8 292.5 44.8 291.9Q44.8 291.2 44.6 291.2Q44.5 291.2 43.6 287.2Q42.8 283.2 42.5 283Q42.2 282.8 42 281.5Q41.8 280.2 41.4 279.8Q41 279.2 41 278.9Q41 278.5 40.9 278.5Q40.8 278.5 40.8 278.1Q40.8 277.8 40.4 277Q40 276.2 39.9 275.2Q39.8 274.2 39.5 273.9Q39.2 273.5 39.2 273Q39.2 272.5 39.1 272.5Q39 272.5 39 271.9Q39 271.2 38.9 271.2Q38.8 271.2 38.8 270.6Q38.8 270 38.6 270Q38.5 270 38.5 269.4Q38.5 268.8 38.4 268.8Q38.2 268.8 38.2 268.1Q38.2 267.5 38.1 267.5Q38 267.5 37.9 265.4Q37.8 263.2 37.6 263.2Q37.5 263.2 37.4 261.9Q37.2 260.5 37.1 260.5Q37 260.5 37 258.4Q37 256.2 36.9 256.2Q36.8 256.2 36.8 255Q36.8 253.8 36.6 253.8Q36.5 253.8 36.4 249.2Q36.2 244.8 36.1 244.8Q36 244.8 36 242.6Q36 240.5 35.9 240.5Q35.8 240.5 35.6 233.2Q35.5 226 35.6 226Q35.8 226 35.9 224.4Q36 222.8 36.2 222.5Q36.5 222.2 36.6 221.2Q36.8 220.2 36.9 220.2Q37 220.2 37 219.2Q37 218.2 37.1 218.2Q37.2 218.2 37.6 215.1Q38 212 38.1 212Q38.2 212 38.4 211.4Q38.5 210.8 38.8 210.6Q39 210.5 39.1 209.9Q39.2 209.2 39.5 209.1Q39.8 209 39.9 210.1Q40 211.2 39.9 211.2Q39.8 211.2 39.6 213Q39.5 214.8 39.2 215.2Q39 215.8 38.9 218.6Q38.8 221.5 38.6 221.5Q38.5 221.5 38.5 222.6Q38.5 223.8 38.4 223.8Q38.2 223.8 38.1 230.9Q38 238 38.1 238Q38.2 238 38.2 240.1Q38.2 242.2 38.4 242.2Q38.5 242.2 38.5 243.1Q38.5 244 38.6 244Q38.8 244 38.9 246.9Q39 249.8 39.1 249.8Q39.2 249.8 39.2 250.6Q39.2 251.5 39.4 251.5Q39.5 251.5 39.5 252.2Q39.5 253 39.6 253Q39.8 253 39.9 255Q40 257 40.1 257Q40.2 257 40.2 257.6Q40.2 258.2 40.4 258.2Q40.5 258.2 40.5 258.8Q40.5 259.2 40.8 259.8Q41 260.2 41.1 261.4Q41.2 262.5 41.4 262.5Q41.5 262.5 41.6 263.4Q41.8 264.2 41.9 264.2Q42 264.2 42 264.9Q42 265.5 42.1 265.5Q42.2 265.5 42.2 265.9Q42.2 266.2 42.6 267Q43 267.8 43.1 268.9Q43.2 270 43.6 270.8Q44 271.5 44.1 272.6Q44.2 273.8 44.4 273.8Q44.5 273.8 44.5 274.2Q44.5 274.8 44.8 275.1Q45 275.5 45.1 276.8Q45.2 278 45.4 278Q45.5 278 45.9 280.1Q46.2 282.2 46.4 282.2Q46.5 282.2 46.5 282.8Q46.5 283.2 46.8 283.8Q47 284.2 47 284.9Q47 285.5 47.1 285.5Q47.2 285.5 47.2 286Q47.2 286.5 47.4 286.5Q47.5 286.5 47.5 287Q47.5 287.5 47.8 288Q48 288.5 48.1 289.8Q48.2 291 48.5 291.4Q48.8 291.8 48.9 293.1Q49 294.5 49.1 294.5Q49.2 294.5 49.2 295Q49.2 295.5 49.5 296Q49.8 296.5 49.9 297.9Q50 299.2 50.2 299.8Q50.5 300.2 50.8 302.1Q51 304 51.1 304Q51.2 304 51.2 304.5Q51.2 305 51.6 305.8Q52 306.5 52.1 307.5Q52.2 308.5 52.6 309.2Q53 310 53 310.5Q53 311 53.1 311Q53.2 311 53.2 311.4Q53.2 311.8 53.6 312.5Q54 313.2 54.2 314.5Q54.5 315.8 54.8 316Q55 316.2 55.1 317.1Q55.2 318 55.8 319Q56.2 320 56.2 320.5Q56.2 321 56.6 321.6Q57 322.2 57.1 323.1Q57.2 324 57.8 325Q58.2 326 58.5 326.1Q58.8 326.2 59.2 327.5Q59.8 328.8 60 328.9Q60.2 329 60.5 329.6Q60.8 330.2 61.4 330.8Q62 331.2 62 331.5Q62 331.8 62.4 331.9Q62.8 332 62.9 332.4Q63 332.8 63.2 332.8Q63.5 332.8 64.5 333.8Q65.5 334.8 65.8 334.8Q66 334.8 66.5 335.4Q67 336 67.2 336Q67.5 336 68.2 336.8Q69 337.5 69.2 337.5Q69.5 337.5 70.1 338.1Q70.8 338.8 71.4 339Q72 339.2 72.4 339.8Q72.8 340.2 73 340.2Q73.2 340.2 74 341Q74.8 341.8 75.4 342Q76 342.2 76.8 343Q77.5 343.8 77.8 343.8Q78 343.8 78.1 344Q78.2 344.2 78.5 344.2Q78.8 344.2 78.9 344.5Q79 344.8 80 345.2Q81 345.8 81.4 346.2Q81.8 346.8 82 346.8Q82.2 346.8 82.5 347.1Q82.8 347.5 83.4 347.8Q84 348 84.2 348.4Q84.5 348.8 85 348.9Q85.5 349 85.6 349.2Q85.8 349.5 86 349.5Q86.2 349.5 86.4 349.8Q86.5 350 86.8 350Q87 350 87.1 350.2Q87.2 350.5 87.5 350.5Q87.8 350.5 87.9 350.8Q88 351 89 351.5Q90 352 90.2 352.4Q90.5 352.8 90.8 352.8Q91 352.8 91.6 353.4Q92.2 354 92.5 354Q92.8 354 92.9 354.2Q93 354.5 93.2 354.5Q93.5 354.5 93.6 354.8Q93.8 355 94.8 355.5Q95.8 356 96 356.4Q96.2 356.8 96.8 356.9Q97.2 357 97.5 357.4Q97.8 357.8 100.2 359Q102.8 360.2 102.9 360.5Q103 360.8 104.4 361.4Q105.8 362 105.9 362.2Q106 362.5 107.2 363.1Q108.5 363.8 108.9 363.8Q109.2 363.8 109.8 364.1Q110.2 364.5 110.6 364.5Q111 364.5 112.2 365.1Q113.5 365.8 114.2 365.9Q115 366 115.1 366.2Q115.2 366.5 116 366.6Q116.8 366.8 117 367Q117.2 367.2 117.6 367.2Q118 367.2 118.2 367.5Q118.5 367.8 120.1 368.2Q121.8 368.8 122.2 369.1Q122.8 369.5 123.9 369.8Q125 370 126 370.5Q127 371 129.1 371.4Q131.2 371.8 133 372.8Q134.8 373.8 136.1 373.9Q137.5 374 138.2 373.2Q139 372.5 139.6 371.2Q140.2 370 140.5 369.9Q140.8 369.8 141.1 368.8Q141.5 367.8 142.1 367Q142.8 366.2 142.9 365.6Q143 365 143.2 364.9Q143.5 364.8 143.6 364.1Q143.8 363.5 144 363.2Q144.2 363 144.2 362.6Q144.2 362.2 144.5 362.1Q144.8 362 144.8 361.6Q144.8 361.2 145.2 360.5Q145.8 359.8 145.8 359.4Q145.8 359 146.4 358Q147 357 147 356.6Q147 356.2 147.5 355.4Q148 354.5 148 354Q148 353.5 148.4 353Q148.8 352.5 148.9 351.6Q149 350.8 149.2 350.5Q149.5 350.2 149.8 349Q150 347.8 150.4 347.1Q150.8 346.5 151 345Q151.2 343.5 151.5 343.1Q151.8 342.8 151.8 342.2Q151.8 341.8 151.9 341.8Q152 341.8 152 341.2Q152 340.8 152.1 340.8Q152.2 340.8 152.2 340.2Q152.2 339.8 152.5 339.2Q152.8 338.8 153 334Q153.2 329.2 153 329.1Q152.8 329 152.8 328.8Q152.8 328.5 151.5 327.9Q150.2 327.2 149.9 327.2Q149.5 327.2 147.8 326.2Q146 325.2 145.1 325Q144.2 324.8 144.1 324.5Q144 324.2 138.4 321.5Q132.8 318.8 132.6 318.5Q132.5 318.2 132.1 318.2Q131.8 318.2 130 317.4Q128.2 316.5 127.2 316.4Q126.2 316.2 124.2 314.1Q122.2 312 122 312Q121.8 312 121.4 311.5Q121 311 119.5 310.2Q118 309.5 117.9 309.2Q117.8 309 117.4 309Q117 309 116.5 308.6Q116 308.2 113.2 308.4Q110.5 308.5 110.2 308.2Q110 308 109.6 308Q109.2 308 107.2 307Q105.2 306 104.9 305.5Q104.5 305 104.2 305Q104 305 103.4 304.4Q102.8 303.8 102 303.6Q101.2 303.5 100.9 303.8Q100.5 304 99.9 304Q99.2 304 98.8 303.5Q98.2 303 98.1 302.4Q98 301.8 97.9 301.8Q97.8 301.8 97.6 299Q97.5 296.2 97.2 295.8Q97 295.2 96.6 295Q96.2 294.8 96.2 294.5Q96.2 294.2 96 294.2Q95.8 294.2 94.9 293.4Q94 292.5 93.9 291.9Q93.8 291.2 93.6 291.2Q93.5 291.2 93.5 290.1Q93.5 289 93.4 289Q93.2 289 93.2 288.4Q93.2 287.8 93.1 287.8Q93 287.8 92.9 286.1Q92.8 284.5 92.5 284.1Q92.2 283.8 92.2 283.2Q92.2 282.8 92.1 282.8Q92 282.8 92 282.2Q92 281.8 91.9 281.8Q91.8 281.8 91.8 281.2Q91.8 280.8 91.6 280.8Q91.5 280.8 91.5 280.2Q91.5 279.8 91.2 279.2Q91 278.8 90.9 277.2Q90.8 275.8 90.6 275.8Q90.5 275.8 90.4 274.6Q90.2 273.5 90.1 273.5Q90 273.5 89.9 271.2Q89.8 269 89.5 268.9Q89.2 268.8 89 268.1Q88.8 267.5 87.4 266.2Q86 265 86 264.8Q86 264.5 85.4 264Q84.8 263.5 84.8 263.2Q84.8 263 84 262.4Q83.2 261.8 83.2 261.5Q83.2 261.2 82.9 261Q82.5 260.8 82.1 260Q81.8 259.2 81.2 258.9Q80.8 258.5 80.4 257.8Q80 257 79.5 256.6Q79 256.2 78.5 255.2Q78 254.2 77.6 254Q77.2 253.8 77.2 253.5Q77.2 253.2 76.8 252.8Q76.2 252.2 76.1 251.8Q76 251.2 75.6 251Q75.2 250.8 75.1 250.2Q75 249.8 74.6 249.5Q74.2 249.2 74 248.5Q73.8 247.8 73.5 247.6Q73.2 247.5 73 246.9Q72.8 246.2 72.4 246Q72 245.8 71.5 244.6Q71 243.5 70.6 243.2Q70.2 243 70.1 242.4Q70 241.8 69.8 241.6Q69.5 241.5 69.2 240.6Q69 239.8 68.8 239.6Q68.5 239.5 68.4 238.9Q68.2 238.2 68.5 238.4Q68.8 238.5 68.8 238.9Q68.8 239.2 69.2 239.4Q69.8 239.5 69.9 240Q70 240.5 70.9 241.4Q71.8 242.2 71.8 242.5Q71.8 242.8 72 242.9Q72.2 243 72.2 243.2Q72.2 243.5 73 244.4Q73.8 245.2 73.9 245.8Q74 246.2 74.9 247.1Q75.8 248 75.8 248.2Q75.8 248.5 76.1 248.8Q76.5 249 76.5 249.2Q76.5 249.5 77.2 250.2Q78 251 78 251.2Q78 251.5 78.5 251.9Q79 252.2 79 252.5Q79 252.8 79.6 253.4Q80.2 254 80.2 254.2Q80.2 254.5 80.6 254.8Q81 255 81.1 255.5Q81.2 256 81.6 256.2Q82 256.5 82 256.8Q82 257 82.6 257.6Q83.2 258.2 83.2 258.5Q83.2 258.8 83.8 259.1Q84.2 259.5 84.2 259.8Q84.2 260 84.8 260.5Q85.2 261 85.6 260.9Q86 260.8 86 259.5Q86 258.2 85.9 258.2Q85.8 258.2 85.8 257.4Q85.8 256.5 85.6 256.5Q85.5 256.5 85.2 254.9Q85 253.2 84.9 253.2Q84.8 253.2 84.8 252.5Q84.8 251.8 84.6 251.8Q84.5 251.8 84.5 251.2Q84.5 250.8 84.2 250.4Q84 250 83.9 249Q83.8 248 83.4 247.5Q83 247 82.9 246.2Q82.8 245.5 82.4 244.9Q82 244.2 81.9 243.2Q81.8 242.2 81.6 242.2Q81.5 242.2 81.5 241.2Q81.5 240.2 82.1 239.9Q82.8 239.5 82.8 238.8Q82.8 238 82.6 238Q82.5 238 82.5 237.2Q82.5 236.5 82.2 236Q82 235.5 81 228.5Q80 221.5 79.6 220.8Q79.2 220 79.2 219Q79.2 218 79.5 218Q79.8 218 79.8 218.8Q79.8 219.5 80.2 220.2Q80.8 221 80.9 222.5Q81 224 81.4 224.4Q81.8 224.8 82.4 227.5Q83 230.2 83.1 230.2Q83.2 230.2 83.2 230.6Q83.2 231 83.6 231.8Q84 232.5 84.1 234Q84.2 235.5 84.4 235.5Q84.5 235.5 84.6 236.6Q84.8 237.8 84.9 237.8Q85 237.8 85.2 241.2Q85.5 244.8 85.6 244.8Q85.8 244.8 86 246.2Q86.2 247.8 86.6 248.4Q87 249 87 249.6Q87 250.2 87.1 250.2Q87.2 250.2 87.2 250.8Q87.2 251.2 87.4 251.2Q87.5 251.2 87.5 251.8Q87.5 252.2 87.8 252.8Q88 253.2 89 259.1Q90 265 91.1 266.9Q92.2 268.8 92.5 271.5Q92.8 274.2 92.9 274.2Q93 274.2 93.1 275.5Q93.2 276.8 93.5 277.2Q93.8 277.8 93.9 279.1Q94 280.5 94.1 280.5Q94.2 280.5 94.2 281.1Q94.2 281.8 94.4 281.8Q94.5 281.8 94.5 282.2Q94.5 282.8 94.8 283.2Q95 283.8 95.1 285Q95.2 286.2 95.6 286.9Q96 287.5 96 288.2Q96 289 96.1 289Q96.2 289 96.4 289.8Q96.5 290.5 97.8 291.6Q99 292.8 99.1 293.2Q99.2 293.8 99.5 293.9Q99.8 294 99.8 294.4Q99.8 294.8 100 295.1Q100.2 295.5 100.4 297.8Q100.5 300 101 300.5Q101.5 301 103.2 301.5Q105 302 105.1 302.2Q105.2 302.5 105.9 302.8Q106.5 303 106.8 303.4Q107 303.8 107.6 303.9Q108.2 304 108.6 304.4Q109 304.8 109.4 304.8Q109.8 304.8 110.5 305.1Q111.2 305.5 113.2 305.4Q115.2 305.2 115.2 305.4Q115.2 305.5 115.6 305.5Q116 305.5 116.8 305.9Q117.5 306.2 118 306.1Q118.5 306 118.5 305.6Q118.5 305.2 118.2 304.9Q118 304.5 118 303.8Q118 303 117.9 303Q117.8 303 117.8 301.9Q117.8 300.8 117.4 300.1Q117 299.5 117 299.1Q117 298.8 116.5 298.2Q116 297.8 116 297.5Q116 297.2 115.2 296.6Q114.5 296 114.2 295.5Q114 295 113.9 292.1Q113.8 289.2 113.6 289.2Q113.5 289.2 113.5 288.8Q113.5 288.2 113 287.2Q112.5 286.2 112.2 286.1Q112 286 111.5 285Q111 284 111 283.2Q111 282.5 110.9 282.5Q110.8 282.5 110.9 281.4Q111 280.2 110.9 280.2Q110.8 280.2 110.6 278.9Q110.5 277.5 109 274.5Q107.5 271.5 107.2 271.4Q107 271.2 106.2 269.6Q105.5 268 105.2 267.9Q105 267.8 104.9 267.2Q104.8 266.8 104 266.4Q103.2 266 103 265.6Q102.8 265.2 102.8 262.6Q102.8 260 102.6 260Q102.5 260 102.2 255Q102 250 101.9 250Q101.8 250 101.8 249.1Q101.8 248.2 101.6 248.2Q101.5 248.2 101.5 247.4Q101.5 246.5 101.4 246.5Q101.2 246.5 101.2 245.6Q101.2 244.8 101.1 244.8Q101 244.8 100.9 242.5Q100.8 240.2 100.5 239.8Q100.2 239.2 100.1 237.5Q100 235.8 99.9 235.8Q99.8 235.8 99.8 235.1Q99.8 234.5 99.6 234.5Q99.5 234.5 99.4 233.2Q99.2 232 99.1 232Q99 232 99 230.2Q99 228.5 98.9 228.5Q98.8 228.5 98.8 228Q98.8 227.5 98.5 227Q98.2 226.5 98.1 224.1Q98 221.8 97.9 221.8Q97.8 221.8 97.6 220.6Q97.5 219.5 97.4 219.5Q97.2 219.5 97.2 218.2Q97.2 217 97.1 217Q97 217 96.8 214.2Q96.5 211.5 96.4 211.5Q96.2 211.5 96.2 210.6Q96.2 209.8 96.4 209.8Q96.5 209.8 96.4 207.1Q96.2 204.5 96.1 204.5Q96 204.5 95.9 203Q95.8 201.5 95.6 201.5Q95.5 201.5 94.9 198.6Q94.2 195.8 93.5 194.2Q92.8 192.8 92.1 192.1Q91.5 191.5 91.5 191.2Q91.5 191 90.6 190.1Q89.8 189.2 89.8 189Q89.8 188.8 89.2 188.4Q88.8 188 88.8 187.8Q88.8 187.5 88.4 187.4Q88 187.2 87.9 186.8Q87.8 186.2 87.4 186.2Q87 186.2 87 187Q87 187.8 87.6 189Q88.2 190.2 88.5 190.4Q88.8 190.5 89.2 191.8Q89.8 193 90.5 193.8Q91.2 194.5 91.2 195Q91.2 195.5 90.5 196.2Q89.8 197 88.9 197.1Q88 197.2 88 197.4Q88 197.5 87.2 197.5Q86.5 197.5 86.2 197.8Q86 198 85.1 198Q84.2 198 83.2 197Q82.2 196 82 196Q81.8 196 81.4 195.5Q81 195 80.8 195Q80.5 195 80.1 194.5Q79.8 194 79.5 194Q79.2 194 78.4 193Q77.5 192 77.2 192Q77 192 76.6 191.5Q76.2 191 76 191Q75.8 191 75.2 190.4Q74.8 189.8 74.5 189.8Q74.2 189.8 74 189.4Q73.8 189 73.5 189Q73.2 189 73 188.6Q72.8 188.2 72.5 188.2Q72.2 188.2 72 187.9Q71.8 187.5 71.5 187.5Q71.2 187.5 70.5 186.9Q69.8 186.2 68.9 186.1Q68 186 68 185.9Q68 185.8 66.4 185.4Q64.8 185 64.4 184.8Q64 184.5 62.9 184.4Q61.8 184.2 61.8 184.1Q61.8 184 60.1 183.8Q58.5 183.5 58.5 183.4Q58.5 183.2 57.9 183.2Q57.2 183.2 57.2 183.1Q57.2 183 56.2 182.9Q55.2 182.8 54.9 182.5Q54.5 182.2 53 182Q51.5 181.8 51.1 181.5Q50.8 181.2 49.8 181.1Q48.8 181 48.8 180.9Q48.8 180.8 46.1 180Q43.5 179.2 43.1 178.9Q42.8 178.5 42.5 178.5Q42.2 178.5 42 178.1Q41.8 177.8 41.2 177.6Q40.8 177.5 40.1 178ZM100.4 225.2Q100.2 225.2 100.2 227.4Q100.2 229.5 100.6 229.9Q101 230.2 101.1 232.4Q101.2 234.5 101.4 234.8Q101.5 235 101.8 235Q102 235 101.9 232.8Q101.8 230.5 101.2 229.8Q100.8 229 100.6 227.1Q100.5 225.2 100.4 225.2ZM103.2 240.6Q103 240.8 103 242.9Q103 245 103.1 245Q103.2 245 103.2 246Q103.2 247 103.4 247Q103.5 247 103.6 248.1Q103.8 249.2 103.9 249.2Q104 249.2 104.1 251.2Q104.2 253.2 104.4 253.2Q104.5 253.2 104.9 256.2Q105.2 259.2 105.4 259.2Q105.5 259.2 105.6 260.2Q105.8 261.2 105.9 261.2Q106 261.2 106.1 262.9Q106.2 264.5 106.8 265.5Q107.2 266.5 107.5 266.6Q107.8 266.8 107.9 266.6Q108 266.5 107.9 263.9Q107.8 261.2 107.6 261.2Q107.5 261.2 107.5 260.8Q107.5 260.2 107.2 259.8Q107 259.2 106.9 257.9Q106.8 256.5 106.6 256.5Q106.5 256.5 106.2 254.8Q106 253 105.9 253Q105.8 253 105.8 252.2Q105.8 251.5 105.5 251.1Q105.2 250.8 105 248.5Q104.8 246.2 104.6 246.2Q104.5 246.2 104.5 245.8Q104.5 245.2 104.2 244.9Q104 244.5 103.8 242.5Q103.5 240.5 103.2 240.6ZM113.4 276.2Q113.2 276.2 113.2 276.9Q113.2 277.5 113.5 277.9Q113.8 278.2 113.8 279.9Q113.8 281.5 113.9 281.5Q114 281.5 114 282.1Q114 282.8 114.2 283.2Q114.5 283.8 114.8 283.9Q115 284 115 284.4Q115 284.8 115.8 286.2Q116.5 287.8 116.6 289Q116.8 290.2 116.9 290.2Q117 290.2 117 292.1Q117 294 117.4 294.4Q117.8 294.8 117.8 295Q117.8 295.2 118.4 295.8Q119 296.2 119 296.5Q119 296.8 119.2 296.9Q119.5 297 119.9 297.8Q120.2 298.5 120.5 299.9Q120.8 301.2 120.9 301.2Q121 301.2 121.1 303Q121.2 304.8 121.5 304.9Q121.8 305 122 305.8Q122.2 306.5 122.6 306.8Q123 307 123.6 308.4Q124.2 309.8 124.8 310.2Q125.2 310.8 125.6 310.8Q126 310.8 126.5 311Q127 311.2 127.1 311.5Q127.2 311.8 127.8 311.9Q128.2 312 129.1 312.9Q130 313.8 132.2 314.9Q134.5 316 134.6 316.2Q134.8 316.5 136.2 317.2Q137.8 318 138.1 318Q138.5 318 138.6 318.2Q138.8 318.5 139.4 318.6Q140 318.8 140.5 319Q141 319.2 141.1 319.5Q141.2 319.8 141.6 319.8Q142 319.8 143 320.4Q144 321 144.4 321Q144.8 321 145.1 321.4Q145.5 321.8 145.9 321.8Q146.2 321.8 147.2 322.4Q148.2 323 148.6 323Q149 323 149.1 323.2Q149.2 323.5 149.9 323.6Q150.5 323.8 151.2 324.2Q152 324.8 152.4 324.8Q152.8 324.8 153.5 325.1Q154.2 325.5 154.8 325.4Q155.2 325.2 157.1 322Q159 318.8 159 318.4Q159 318 160.1 315.9Q161.2 313.8 161.2 313.4Q161.2 313 161.5 312.9Q161.8 312.8 162 312.2Q162.2 311.8 162.2 311.4Q162.2 311 162.8 310.5Q163.2 310 163.6 307.8Q164 305.5 164.2 305.2Q164.5 305 164.5 304.2Q164.5 303.5 161.8 302.1Q159 300.8 158.9 300.5Q158.8 300.2 158 300Q157.2 299.8 157.1 299.5Q157 299.2 154.5 298Q152 296.8 151.6 296.8Q151.2 296.8 151.1 296.5Q151 296.2 150.6 296.2Q150.2 296.2 150 296Q149.8 295.8 149.4 295.8Q149 295.8 148.9 295.5Q148.8 295.2 148.4 295.2Q148 295.2 147.2 294.8Q146.5 294.2 146.1 294.2Q145.8 294.2 144.8 293.6Q143.8 293 143.4 293Q143 293 140.8 291.9Q138.5 290.8 138.4 290.5Q138.2 290.2 137 289.6Q135.8 289 135.4 289Q135 289 134.6 288.6Q134.2 288.2 133.6 288.1Q133 288 132.6 287.6Q132.2 287.2 128.5 285.4Q124.8 283.5 124.4 283.5Q124 283.5 123.9 284.1Q123.8 284.8 124.4 285.4Q125 286 125.4 286.1Q125.8 286.2 126 287Q126.2 287.8 126.5 287.9Q126.8 288 126.9 288.8Q127 289.5 127.4 289.9Q127.8 290.2 127.8 290.9Q127.8 291.5 127.6 291.5Q127.5 291.5 127.4 291.1Q127.2 290.8 127 290.8Q126.8 290.8 126.5 290.2Q126.2 289.8 125.8 289.4Q125.2 289 125.2 288.8Q125.2 288.5 124.8 288.1Q124.2 287.8 124.2 287.5Q124.2 287.2 123.8 287Q123.2 286.8 123.1 286.5Q123 286.2 122.8 286.2Q122.5 286.2 121.6 285.2Q120.8 284.2 120.4 284.1Q120 284 120 283.8Q120 283.5 119.5 283.1Q119 282.8 118.1 281Q117.2 279.2 116.5 278.5Q115.8 277.8 115.5 277.8Q115.2 277.8 114.9 277.2Q114.5 276.8 114 276.5Q113.5 276.2 113.4 276.2ZM90.9 292.2Q91.5 292.2 91.4 293.4Q91.2 294.5 89.2 298.5Q87.2 302.5 87.1 303.2Q87 304 86.6 304.5Q86.2 305 86 306Q85.8 307 85.5 307.1Q85.2 307.2 85.1 308.1Q85 309 84.6 309.5Q84.2 310 84.2 310.4Q84.2 310.8 83.6 311.9Q83 313 83 313.4Q83 313.8 82.2 314.6Q81.5 315.5 81.4 314.5Q81.2 313.5 81.4 313.5Q81.5 313.5 81.5 313Q81.5 312.5 81.8 312Q82 311.5 82 310.9Q82 310.2 82.4 309.5Q82.8 308.8 82.8 308.2Q82.8 307.8 82.9 307.8Q83 307.8 83.1 307Q83.2 306.2 83.6 305.6Q84 305 84 304.5Q84 304 84.4 303.5Q84.8 303 84.9 302.2Q85 301.5 85.4 301Q85.8 300.5 85.8 300.1Q85.8 299.8 86.5 298.2Q87.2 296.8 87.5 296.6Q87.8 296.5 88 295.8Q88.2 295 88.5 294.9Q88.8 294.8 88.9 294.2Q89 293.8 89.6 293.2Q90.2 292.8 90.2 292.5Q90.2 292.2 90.9 292.2ZM165.6 306.9Q165.2 307 165 307.2Q164.8 307.5 164.8 307.9Q164.8 308.2 164.4 308.5Q164 308.8 163.9 309.9Q163.8 311 163.4 311.6Q163 312.2 162.8 314.2Q162.5 316.2 162.9 316.6Q163.2 317 165.2 317.5Q167.2 318 167.8 318.4Q168.2 318.8 168.6 318.8Q169 318.8 170 319.2Q171 319.8 171.8 319.9Q172.5 320 173 320.4Q173.5 320.8 174.2 320.9Q175 321 175.4 321.4Q175.8 321.8 176.5 322Q177.2 322.2 177.4 322.5Q177.5 322.8 178.6 322.9Q179.8 323 180.4 322.4Q181 321.8 180.9 321Q180.8 320.2 180.2 319.8Q179.8 319.2 179 319.1Q178.2 319 177.9 318.6Q177.5 318.2 177.2 318.2Q177 318.2 176.8 317.8Q176.5 317.2 176.2 317.2Q176 317.2 175.5 316.6Q175 316 174.8 316Q174.5 316 174.1 315.5Q173.8 315 173.4 314.9Q173 314.8 173.1 314.4Q173.2 314 174 314Q174.8 314 174.8 314.1Q174.8 314.2 176.2 314.6Q177.8 315 178.4 315.5Q179 316 179.4 316Q179.8 316 179.9 316.2Q180 316.5 180.5 316.6Q181 316.8 181.5 317.2Q182 317.8 182.5 317.9Q183 318 183.2 318.4Q183.5 318.8 183.9 318.8Q184.2 318.8 184.6 319.1Q185 319.5 185.8 319.8Q186.5 320 186.8 320.4Q187 320.8 187.5 320.9Q188 321 188.2 321.4Q188.5 321.8 189 321.9Q189.5 322 189.8 322.4Q190 322.8 190.2 322.8Q190.5 322.8 190.6 323Q190.8 323.2 191 323.2Q191.2 323.2 192.1 324Q193 324.8 194 325.2Q195 325.8 195.9 325.8Q196.8 325.8 196.4 325Q196 324.2 195.8 324.2Q195.5 324.2 195.1 323.8Q194.8 323.2 194.5 323.2Q194.2 323.2 193.5 322.5Q192.8 321.8 192.8 321.5Q192.8 321.2 190.8 319.2Q188.8 317.2 188.5 317.2Q188.2 317.2 187.9 316.8Q187.5 316.2 187.2 316.2Q187 316.2 186.9 316Q186.8 315.8 185.8 315.2Q184.8 314.8 184.5 314.4Q184.2 314 184 314Q183.8 314 183.5 313.6Q183.2 313.2 183 313.2Q182.8 313.2 182.2 312.8Q181.8 312.2 181 312Q180.2 311.8 180.1 311.5Q180 311.2 179.6 311.2Q179.2 311.2 179.2 311.1Q179.2 311 178.9 311Q178.5 311 177.8 310.6Q177 310.2 176.2 309.6Q175.5 309 175.1 309Q174.8 309 174.8 308.9Q174.8 308.8 174.4 308.8Q174 308.8 173.2 308.4Q172.5 308 171.9 308Q171.2 308 171.2 307.9Q171.2 307.8 170.9 307.8Q170.5 307.8 169.8 307.4Q169 307 167.5 306.9Q166 306.8 165.6 306.9ZM165.5 321Q164.5 321.2 163.9 321.6Q163.2 322 162.2 322.1Q161.2 322.2 160.2 322.9Q159.2 323.5 159.2 323.9Q159.2 324.2 159.8 324.9Q160.2 325.5 159.2 325.9Q158.2 326.2 158.1 326.5Q158 326.8 157.5 327Q157 327.2 157 327.5Q157 327.8 156.6 328.1Q156.2 328.5 156.1 330.1Q156 331.8 156.4 332.1Q156.8 332.5 158.2 332.8Q159.8 333 159.8 333.1Q159.8 333.2 160.1 333.2Q160.5 333.2 161.5 333.8Q162.5 334.2 166 334.8Q169.5 335.2 169.8 335.5Q170 335.8 170.5 335.8Q171 335.8 172 336.2Q173 336.8 174.4 336.9Q175.8 337 176.8 337.5Q177.8 338 177.9 338.2Q178 338.5 178.8 338.8Q179.5 339 179.6 339.2Q179.8 339.5 180.2 339.6Q180.8 339.8 180.9 340Q181 340.2 181.6 340.5Q182.2 340.8 182.6 341.2Q183 341.8 183.2 341.8Q183.5 341.8 184 342.4Q184.5 343 184.8 343Q185 343 185.2 343.4Q185.5 343.8 186.2 344.1Q187 344.5 187.6 345.2Q188.2 346 188.6 346.1Q189 346.2 189.1 346.6Q189.2 347 189.6 347.1Q190 347.2 190 347.5Q190 347.8 191.4 349Q192.8 350.2 192.8 350.5Q192.8 350.8 193.9 351.9Q195 353 195 353.2Q195 353.5 195.4 353.8Q195.8 354 196.1 354.8Q196.5 355.5 197.8 356.8Q199 358 199.8 359.5Q200.5 361 200.9 361.4Q201.2 361.8 201.5 361.8Q201.8 361.8 201.9 360.8Q202 359.8 202.1 359.8Q202.2 359.8 202.2 358.8Q202.2 357.8 202.1 357.8Q202 357.8 202 354.5Q202 351.2 201.9 351.2Q201.8 351.2 201.5 347.9Q201.2 344.5 201.1 344.5Q201 344.5 200.5 341.8Q200 339 199.9 339Q199.8 339 199.2 337.1Q198.8 335.2 198.5 335Q198.2 334.8 198 333.6Q197.8 332.5 197 331Q196.2 329.5 195.8 329Q195.2 328.5 193.6 327.8Q192 327 191.8 326.6Q191.5 326.2 190.9 326Q190.2 325.8 189.5 325Q188.8 324.2 188.2 324.1Q187.8 324 187.6 323.8Q187.5 323.5 187.2 323.5Q187 323.5 186.9 323.2Q186.8 323 186.4 323Q186 323 185.9 322.8Q185.8 322.5 185.2 322.2Q184.8 322 184.1 322Q183.5 322 183.2 322.2Q183 322.5 183 322.9Q183 323.2 182 324.1Q181 325 179.5 325.1Q178 325.2 178 325.1Q178 325 177.1 324.9Q176.2 324.8 176.1 324.5Q176 324.2 175.6 324.2Q175.2 324.2 174.8 324Q174.2 323.8 174.1 323.5Q174 323.2 173.2 323.1Q172.5 323 172 322.6Q171.5 322.2 170.6 322.1Q169.8 322 169.2 321.6Q168.8 321.2 167.6 321Q166.5 320.8 165.5 321ZM35.4 330.2Q36 330.2 36.5 330.6Q37 331 37.4 331Q37.8 331 39.2 331.8Q40.8 332.5 41 332.9Q41.2 333.2 41.5 333.2Q41.8 333.2 41.8 333.5Q41.8 333.8 41.1 333.9Q40.5 334 40.5 334.1Q40.5 334.2 39.4 334.1Q38.2 334 36.5 332.8Q34.8 331.5 34.8 331.1Q34.8 330.8 34.6 330.8Q34.5 330.8 34.6 330.5Q34.8 330.2 35.4 330.2ZM36.1 335.2Q36.8 335.2 37.5 335.6Q38.2 336 38.4 336.2Q38.5 336.5 38.8 336.5Q39 336.5 39.1 336.8Q39.2 337 39.8 337.1Q40.2 337.2 40.4 337.5Q40.5 337.8 41 337.9Q41.5 338 41.6 338.2Q41.8 338.5 43 339.1Q44.2 339.8 45.4 340Q46.5 340.2 46.8 340.5Q47 340.8 47.9 340.9Q48.8 341 49.4 341.4Q50 341.8 51.5 342Q53 342.2 53.2 342.5Q53.5 342.8 54 342.8Q54.5 342.8 54.5 342.9Q54.5 343 55 343Q55.5 343 55.5 343.1Q55.5 343.2 56 343.2Q56.5 343.2 57 343.5Q57.5 343.8 59.8 344Q62 344.2 62.1 344.5Q62.2 344.8 61.1 344.9Q60 345 60 345.1Q60 345.2 57.1 345.1Q54.2 345 54.2 344.9Q54.2 344.8 52.2 344.4Q50.2 344 50.2 343.9Q50.2 343.8 49.9 343.8Q49.5 343.8 48.8 343.4Q48 343 47.5 343Q47 343 46.5 342.6Q46 342.2 45.2 342.1Q44.5 342 44.1 341.6Q43.8 341.2 42.9 341Q42 340.8 41.9 340.5Q41.8 340.2 41 340Q40.2 339.8 40.1 339.5Q40 339.2 38.8 338.6Q37.5 338 36.8 337.2Q36 336.5 35.8 335.9Q35.5 335.2 36.1 335.2ZM155.8 336.8Q155.2 337.2 155.1 339.1Q155 341 154.9 341Q154.8 341 154.8 341.5Q154.8 342 154.6 342Q154.5 342 154.5 342.5Q154.5 343 154.2 343.5Q154 344 153.9 345.1Q153.8 346.2 153.6 346.2Q153.5 346.2 153.2 347.6Q153 349 152.6 349.8Q152.2 350.5 152.1 351.5Q152 352.5 151.8 352.8Q151.5 353 151.1 354.5Q150.8 356 150.2 356.9Q149.8 357.8 149.8 358.4Q149.8 359 150.1 359.4Q150.5 359.8 150.8 359.8Q151 359.8 151.1 360Q151.2 360.2 152.2 360.6Q153.2 361 153.4 361.2Q153.5 361.5 154.8 362.1Q156 362.8 156.8 362.9Q157.5 363 158.1 363.4Q158.8 363.8 160.5 364Q162.2 364.2 162.2 364.4Q162.2 364.5 163.2 364.5Q164.2 364.5 164.2 364.6Q164.2 364.8 164.5 364.6Q164.8 364.5 166 364.6Q167.2 364.8 170.2 366.2Q173.2 367.8 173.4 368Q173.5 368.2 173.8 368.2Q174 368.2 174.1 368.5Q174.2 368.8 174.5 368.8Q174.8 368.8 174.9 369Q175 369.2 175.2 369.2Q175.5 369.2 176.4 370Q177.2 370.8 177.8 370.9Q178.2 371 178.4 371.2Q178.5 371.5 179.2 371.6Q180 371.8 180 371.9Q180 372 180.8 372Q181.5 372 181.5 372.1Q181.5 372.2 182.6 372.1Q183.8 372 183.9 371.2Q184 370.5 183.5 370.2Q183 370 182.9 369.8Q182.8 369.5 182.5 369.5Q182.2 369.5 182.1 369.1Q182 368.8 181.5 368.4Q181 368 181 367.8Q181 367.5 179.9 366.4Q178.8 365.2 178.5 365.2Q178.2 365.2 177.8 364.6Q177.2 364 177 364Q176.8 364 176.2 363.4Q175.8 362.8 175.5 362.8Q175.2 362.8 174.1 361.6Q173 360.5 173.1 360.2Q173.2 360 174 360.1Q174.8 360.2 174.9 360.5Q175 360.8 176.4 361.4Q177.8 362 178 362.4Q178.2 362.8 178.5 362.8Q178.8 362.8 179.5 363.5Q180.2 364.2 180.5 364.2Q180.8 364.2 181.4 365Q182 365.8 182.6 366Q183.2 366.2 183.5 366.6Q183.8 367 184 367Q184.2 367 184.5 367.4Q184.8 367.8 185 367.8Q185.2 367.8 185.8 368.2Q186.2 368.8 187.5 369Q188.8 369.2 188.8 369.1Q188.8 369 189.1 369Q189.5 369 189.6 368.6Q189.8 368.2 189.5 367.8Q189.2 367.2 189 367.1Q188.8 367 188.8 366.8Q188.8 366.5 188.4 366.2Q188 366 188 365.8Q188 365.5 187.5 365.1Q187 364.8 187 364.5Q187 364.2 183.8 361Q180.5 357.8 180.2 357.8Q180 357.8 179.9 357.4Q179.8 357 179.1 356.8Q178.5 356.5 178.2 355.9Q178 355.2 178.4 355.2Q178.8 355.2 178.9 355.5Q179 355.8 179.8 356Q180.5 356.2 180.8 356.6Q181 357 181.5 357.1Q182 357.2 182.4 357.8Q182.8 358.2 183 358.2Q183.2 358.2 187 362Q190.8 365.8 191.8 365.9Q192.8 366 193 365.8Q193.2 365.5 193.1 365Q193 364.5 192.2 364Q191.5 363.5 191.5 363.2Q191.5 363 190.8 362.1Q190 361.2 189.9 360.8Q189.8 360.2 189.4 360Q189 359.8 189 359.5Q189 359.2 188.6 359Q188.2 358.8 187.9 358Q187.5 357.2 184.4 354.1Q181.2 351 181.2 350.6Q181.2 350.2 181.4 350.2Q181.5 350.2 181.8 350.6Q182 351 182.4 351Q182.8 351 182.9 351.2Q183 351.5 183.6 351.8Q184.2 352 184.6 352.5Q185 353 185.2 353Q185.5 353 186.2 353.8Q187 354.5 187 354.8Q187 355 187.9 355.8Q188.8 356.5 188.8 356.8Q188.8 357 190 358.1Q191.2 359.2 191.2 359.5Q191.2 359.8 192 360Q192.8 360.2 192.8 359.6Q192.8 359 192.5 358.9Q192.2 358.8 192.2 358.5Q192.2 358.2 192 358.1Q191.8 358 191.8 357.8Q191.8 357.5 191.5 357.4Q191.2 357.2 191.2 357Q191.2 356.8 191 356.6Q190.8 356.5 190.8 356.2Q190.8 356 190.5 355.9Q190.2 355.8 189.9 355Q189.5 354.2 189.5 353.6Q189.5 353 189.6 353Q189.8 353 189.6 352.4Q189.5 351.8 189.2 351.6Q189 351.5 188.5 350.5Q188 349.5 187.5 349.1Q187 348.8 187 348.5Q187 348.2 186.6 348.1Q186.2 348 185.9 347.5Q185.5 347 184.8 346.6Q184 346.2 183.5 346.2Q183 346.2 182.8 346.8Q182.5 347.2 182 347.2Q181.5 347.2 181 347Q180.5 346.8 180.5 346.4Q180.5 346 181 345.8Q181.5 345.5 181.4 344.9Q181.2 344.2 180.1 343.2Q179 342.2 178.2 342Q177.5 341.8 177.4 341.5Q177.2 341.2 176.5 341.1Q175.8 341 175.5 340.8Q175.2 340.5 174.9 340.5Q174.5 340.5 174.5 340.4Q174.5 340.2 174.1 340.2Q173.8 340.2 173.8 340.1Q173.8 340 173.4 340Q173 340 172.4 339.6Q171.8 339.2 171.2 339.2Q170.8 339.2 170.8 339.1Q170.8 339 170.4 339Q170 339 169.2 338.6Q168.5 338.2 166.6 338Q164.8 337.8 164.8 337.6Q164.8 337.5 163.8 337.4Q162.8 337.2 162.8 337.1Q162.8 337 161.4 337Q160 337 160 336.9Q160 336.8 159.5 336.8Q159 336.8 158.5 336.5Q158 336.2 157.1 336.2Q156.2 336.2 155.8 336.8ZM47.2 355Q48 355 48.9 355.5Q49.8 356 51.4 356.4Q53 356.8 53 356.9Q53 357 53.5 357Q54 357 54 357.1Q54 357.2 56.8 357.6Q59.5 358 59.5 358.1Q59.5 358.2 60.1 358.2Q60.8 358.2 60.8 358.4Q60.8 358.5 61.4 358.5Q62 358.5 62 358.6Q62 358.8 67.8 358.9Q73.5 359 73.5 358.9Q73.5 358.8 75.9 358.8Q78.2 358.8 78.2 358.6Q78.2 358.5 79.1 358.5Q80 358.5 80 358.4Q80 358.2 82 358.2Q84 358.2 84 358.4Q84 358.5 83.4 358.6Q82.8 358.8 82.4 359.1Q82 359.5 81 359.8Q80 360 79.4 360.4Q78.8 360.8 75.1 360.9Q71.5 361 71.5 361.1Q71.5 361.2 66.2 361.1Q61 361 61 360.9Q61 360.8 60.4 360.8Q59.8 360.8 59.8 360.6Q59.8 360.5 57.1 360.2Q54.5 360 54.5 359.9Q54.5 359.8 54.1 359.8Q53.8 359.8 53 359.4Q52.2 359 51.8 359Q51.2 359 50.8 358.6Q50.2 358.2 49.6 358.1Q49 358 48.5 357.5Q48 357 47.8 357Q47.5 357 47.2 356.5Q47 356 46.6 355.8Q46.2 355.5 46.4 355.2Q46.5 355 47.2 355ZM109.5 381.2Q110 381.2 110.1 381.5Q110.2 381.8 111 382Q111.8 382.2 112 382.6Q112.2 383 112.5 383Q112.8 383 113 383.4Q113.2 383.8 113.9 384Q114.5 384.2 115.4 385.1Q116.2 386 116.5 386Q116.8 386 117 386.4Q117.2 386.8 117.5 386.8Q117.8 386.8 118.4 387.4Q119 388 119.2 388Q119.5 388 119.9 388.5Q120.2 389 121 389.4Q121.8 389.8 122.9 390.9Q124 392 125 392.5Q126 393 126.4 393.5Q126.8 394 127 394Q127.2 394 128.2 395Q129.2 396 129.8 396.1Q130.2 396.2 130.6 396.8Q131 397.2 131.2 397.2Q131.5 397.2 131.9 397.8Q132.2 398.2 132.5 398.2Q132.8 398.2 132.9 398.6Q133 399 133.2 399Q133.5 399 133.9 399.5Q134.2 400 134.5 400Q134.8 400 134.9 400.4Q135 400.8 135.4 400.9Q135.8 401 136.9 402.1Q138 403.2 138 403.5Q138 403.8 137.6 403.8Q137.2 403.8 137.1 403.4Q137 403 136.6 403Q136.2 403 135.9 402.5Q135.5 402 135 401.9Q134.5 401.8 134.1 401.2Q133.8 400.8 133.5 400.8Q133.2 400.8 132.2 399.8Q131.2 398.8 131 398.8Q130.8 398.8 130.4 398.2Q130 397.8 129.8 397.8Q129.5 397.8 129.1 397.2Q128.8 396.8 128.5 396.8Q128.2 396.8 128.1 396.4Q128 396 127.5 395.9Q127 395.8 126.1 394.9Q125.2 394 124.8 393.9Q124.2 393.8 124.1 393.4Q124 393 123.5 392.9Q123 392.8 122.1 391.9Q121.2 391 120.8 390.9Q120.2 390.8 120.2 390.5Q120.2 390.2 119.8 390.1Q119.2 390 118.1 388.9Q117 387.8 116.8 387.8Q116.5 387.8 115.6 386.9Q114.8 386 114.5 386Q114.2 386 114 385.6Q113.8 385.2 113.5 385.2Q113.2 385.2 112.5 384.5Q111.8 383.8 111.5 383.8Q111.2 383.8 110.9 383.2Q110.5 382.8 110.2 382.8Q110 382.8 110 382.5Q110 382.2 109.5 382Q109 381.8 109 381.5Q109 381.2 109.5 381.2ZM147.6 384.2Q148.8 384.2 148.9 384.5Q149 384.8 149.9 384.9Q150.8 385 151.2 385.4Q151.8 385.8 152.9 386Q154 386.2 154.1 386.5Q154.2 386.8 155.1 386.9Q156 387 157.8 387.9Q159.5 388.8 160.4 388.9Q161.2 389 161.8 389.4Q162.2 389.8 163 389.9Q163.8 390 164.2 390.4Q164.8 390.8 165.5 390.9Q166.2 391 166.8 391.4Q167.2 391.8 169.2 392.4Q171.2 393 171.8 393.4Q172.2 393.8 172.6 393.8Q173 393.8 173.8 394.2Q174.5 394.8 174.9 394.8Q175.2 394.8 176 395.2Q176.8 395.8 177.5 395.9Q178.2 396 178.4 396.2Q178.5 396.5 179.6 396.9Q180.8 397.2 182.2 398.5Q183.8 399.8 183 399.9Q182.2 400 182.2 399.9Q182.2 399.8 181.8 399.8Q181.2 399.8 180.5 399.4Q179.8 399 179.2 399Q178.8 399 178.2 398.6Q177.8 398.2 176.9 398.1Q176 398 175.5 397.6Q175 397.2 174 397Q173 396.8 172.9 396.5Q172.8 396.2 171.6 396Q170.5 395.8 170.4 395.5Q170.2 395.2 168.2 394.6Q166.2 394 164.5 393Q162.8 392 162.4 392Q162 392 159.9 390.9Q157.8 389.8 157.4 389.8Q157 389.8 156.6 389.4Q156.2 389 155.9 389Q155.5 389 154.8 388.5Q154 388 153.6 388Q153.2 388 152.8 387.8Q152.2 387.5 152.1 387.2Q152 387 151.2 386.9Q150.5 386.8 150.2 386.4Q150 386 149.2 385.9Q148.5 385.8 148.4 385.4Q148.2 385 147.9 385Q147.5 385 147 384.6Q146.5 384.2 147.6 384.2ZM110.9 418.1Q111.5 418.2 111.8 418.8Q112 419.2 112.5 419.4Q113 419.5 113 419.8Q113 420 113.6 420.1Q114.2 420.2 114.5 420.6Q114.8 421 115.2 421.1Q115.8 421.2 116.5 422Q117.2 422.8 118 423Q118.8 423.2 119 423.6Q119.2 424 120.5 424.6Q121.8 425.2 122.5 426Q123.2 426.8 124 427Q124.8 427.2 125 427.6Q125.2 428 126.5 428.6Q127.8 429.2 127.8 429.5Q127.8 429.8 129.4 430.5Q131 431.2 131.2 431.6Q131.5 432 132 432.1Q132.5 432.2 132.6 432.6Q132.8 433 133.4 433.1Q134 433.2 134.2 433.6Q134.5 434 135.2 434.1Q136 434.2 136.1 434.5Q136.2 434.8 137 435Q137.8 435.2 138 435.6Q138.2 436 138.9 436.1Q139.5 436.2 139.6 436.6Q139.8 437 140.5 437.1Q141.2 437.2 141.4 437.5Q141.5 437.8 140.8 437.8Q140 437.8 139.6 437.4Q139.2 437 138.5 436.9Q137.8 436.8 137.4 436.4Q137 436 136.4 435.9Q135.8 435.8 135.5 435.4Q135.2 435 134.8 434.9Q134.2 434.8 134 434.4Q133.8 434 132.1 433.4Q130.5 432.8 130.4 432.5Q130.2 432.2 129.5 432Q128.8 431.8 128.5 431.4Q128.2 431 127.9 431Q127.5 431 127 430.5Q126.5 430 126 429.9Q125.5 429.8 125.2 429.4Q125 429 124.6 429Q124.2 429 124 428.6Q123.8 428.2 122.5 427.6Q121.2 427 121 426.6Q120.8 426.2 120.1 426Q119.5 425.8 119.2 425.4Q119 425 118.5 424.9Q118 424.8 118 424.5Q118 424.2 117.4 424Q116.8 423.8 116.4 423.2Q116 422.8 115.8 422.8Q115.5 422.8 114.6 421.9Q113.8 421 113.5 421Q113.2 421 112.8 420.4Q112.2 419.8 112 419.8Q111.8 419.8 111.5 419.2Q111.2 418.8 110.9 418.8Q110.5 418.8 110.4 418.4Q110.2 418 110.9 418.1ZM75.2 422.8Q74 423.2 73.1 424.1Q72.2 425 70.9 425.6Q69.5 426.2 69.4 426.5Q69.2 426.8 68 427.4Q66.8 428 66.2 428.5Q65.8 429 65.4 429Q65 429 64.6 429.4Q64.2 429.8 63.1 430.1Q62 430.5 61.6 430.9Q61.2 431.2 61.2 431.5Q61.2 431.8 61.6 432.1Q62 432.5 62.1 433.5Q62.2 434.5 62.8 434.9Q63.2 435.2 66.5 435.5Q69.8 435.8 69.8 435.9Q69.8 436 77.8 436Q85.8 436 86 435.9Q86.2 435.8 86.1 435.2Q86 434.8 85.1 433.9Q84.2 433 84.1 432.5Q84 432 83.6 431.8Q83.2 431.5 83.1 431Q83 430.5 82.8 430.4Q82.5 430.2 82.5 430Q82.5 429.8 82.2 429.6Q82 429.5 82 429.2Q82 429 81.8 428.9Q81.5 428.8 81.5 428.5Q81.5 428.2 80.8 427.4Q80 426.5 79.2 424.9Q78.5 423.2 78.1 422.9Q77.8 422.5 77.1 422.4Q76.5 422.2 75.2 422.8Z"/></svg>